<?xml version="1.0" encoding="UTF-8" standalone="no"?>
<!-- Created with Inkscape (http://www.inkscape.org/) -->

<svg
   width="100mm"
   height="100mm"
   viewBox="0 0 100 100"
   version="1.1"
   id="svg5"
   xml:space="preserve"
   inkscape:version="1.2.2 (732a01da63, 2022-12-09)"
   sodipodi:docname="Water.svg"
   inkscape:export-filename="..\..\Assets\Sprites\Water.png"
   inkscape:export-xdpi="130.048"
   inkscape:export-ydpi="130.048"
   xmlns:inkscape="http://www.inkscape.org/namespaces/inkscape"
   xmlns:sodipodi="http://sodipodi.sourceforge.net/DTD/sodipodi-0.dtd"
   xmlns="http://www.w3.org/2000/svg"
   xmlns:svg="http://www.w3.org/2000/svg"><sodipodi:namedview
     id="namedview7"
     pagecolor="#ffffff"
     bordercolor="#666666"
     borderopacity="1.0"
     inkscape:showpageshadow="2"
     inkscape:pageopacity="0.0"
     inkscape:pagecheckerboard="0"
     inkscape:deskcolor="#d1d1d1"
     inkscape:document-units="mm"
     showgrid="false"
     showguides="true"
     inkscape:zoom="1.4912879"
     inkscape:cx="239.05512"
     inkscape:cy="143.50013"
     inkscape:window-width="1920"
     inkscape:window-height="1017"
     inkscape:window-x="1912"
     inkscape:window-y="-8"
     inkscape:window-maximized="1"
     inkscape:current-layer="layer1" /><defs
     id="defs2"><clipPath
       clipPathUnits="userSpaceOnUse"
       id="clipPath9281"><path
         id="path9283"
         style="opacity:1;fill:#57769b;fill-opacity:1;stroke:none;stroke-width:0.3;stroke-linecap:round;paint-order:stroke fill markers"
         d="m -50.000048,-75.000072 v 1.860351 c 1.421815,0.347176 2.679504,0.946034 3.416845,1.761649 0.31151,0.34458 0.501946,0.7673 0.583943,1.222148 0.24611,1.364514 -0.486529,3.020644 -1.878954,3.74189 -0.466098,0.229368 -1.229159,0.401717 -2.121834,0.520899 v 5.109247 c 3.113987,0.09277 6.127506,1.003162 8.179345,2.803448 7.334933,6.435688 8.343061,21.877248 1.907376,29.21217 -2.252628,2.567393 -6.175285,3.947811 -10.086721,4.058667 v 1.097091 c 6.030039,0.918961 12.022346,3.127074 15.302942,6.134509 4.022468,3.68753 2.848993,10.0881106 -2.220021,12.1088216 -3.354478,1.3372346 -8.191672,1.5413427 -13.082921,0.8898681 v 2.5538494 c 1.688785,-0.5502804 3.529404,-0.8112607 5.432226,-0.8118367 8.137983,-0.00249 17.389023,4.7122118 20.527946,11.4918051 2.25187,4.8636655 0.194329,12.3142335 -3.924825,16.2455195 -0.835055,0.796969 -1.752865,1.452419 -2.738851,1.908929 -5.526119,2.558574 -13.260684,1.443038 -19.291845,-1.908929 h -5.29e-4 l -0.0041,-0.0026 v 0.0031 1.859836 c 1.421815,0.347178 2.679504,0.946033 3.416845,1.761651 0.311509,0.344578 0.501946,0.767297 0.583943,1.222145 0.24611,1.364517 -0.486529,3.020645 -1.878954,3.741891 -0.466098,0.229367 -1.229159,0.401717 -2.121834,0.520898 v 5.10925 c 3.113987,0.09277 6.127506,1.00316 8.179345,2.803446 7.334932,6.43569 8.343061,21.87725 1.907376,29.212172 -2.252629,2.567392 -6.175285,3.947811 -10.086721,4.058666 v 1.097089 c 6.030039,0.918962 12.022346,3.127076 15.302941,6.13451 4.022469,3.68753 2.848994,10.088111 -2.220021,12.108821 -3.354477,1.337236 -8.191672,1.541343 -13.08292,0.88987 v 2.553849 c 1.688785,-0.550281 3.529404,-0.811261 5.432226,-0.811837 8.137983,-0.0024 17.389023,4.712209 20.527946,11.491799 2.25187,4.86367 0.194329,12.31424 -3.924826,16.24552 h 1.251604 c 1.783554,-2.71325 4.957137,-5.2513 8.059456,-6.72207 -1.069487,-1.81192 -1.492605,-3.63758 -0.802018,-4.47621 0.235859,-0.28643 0.686162,-0.42061 1.251086,-0.42375 1.242835,-0.007 3.040493,0.61889 4.330485,1.64486 0.955268,0.75975 1.804413,1.72668 2.46755,2.728 1.8982908,1.75841 1.7243638,5.01475 0.598413,7.24917 h 2.5502317 c -0.4142065,-0.78515 -0.751694,-1.73176 -0.9498126,-2.79983 -0.4825476,-2.60148 0.1452954,-6.86895 1.1875243,-8.07341 0.3697666,-0.42733 0.7948266,-0.62442 1.2386842,-0.62476 1.4499325,-0.001 3.0983923,2.09524 3.6576577,5.11028 0.3447888,1.8588 0.1165214,4.55275 -0.4185791,6.38772 H 0.03824056 C -4.540187,117.99151 -5.584866,103.56718 -1.730127,95.962102 c 1.67452437,-3.303701 4.995369,-5.146032 8.1617758,-5.154726 2.0297479,-0.0056 3.9960862,0.742169 5.4244752,2.341978 5.535354,6.199616 7.077894,22.354146 2.918168,30.560926 -0.23286,0.45943 -0.499983,0.88793 -0.791683,1.28984 h 3.040641 c -0.0744,-0.21706 -0.142484,-0.43854 -0.200504,-0.66662 -0.66188,-2.60148 0.199302,-6.86947 1.628841,-8.07393 0.507179,-0.42734 1.090312,-0.62444 1.699121,-0.62477 1.988748,-0.001 4.249649,2.09575 5.016748,5.1108 0.30946,1.21634 0.2764,2.79302 0.01757,4.25452 h 4.189406 c -0.925348,-0.52468 -1.752933,-1.2273 -2.370912,-2.09909 -1.738539,-2.45259 -2.599018,-6.0536 -2.598808,-9.54102 -3.423837,-1.7574 -6.429529,-4.51075 -7.292578,-7.18768 -0.24272,-0.75288 -0.24342,-1.54219 -0.05271,-2.3058 0.572059,-2.29082 2.868635,-4.349677 5.535062,-4.495851 0.0512,-0.0019 0.103684,-0.0027 0.157614,-0.0026 3.397546,0.0072 12.063589,3.678911 14.696775,6.576861 3.573746,5.04156 3.437255,14.93726 -0.258381,18.72031 -0.119309,0.12213 -0.251286,0.229 -0.383956,0.33486 h 1.14825 c 0.0181,-0.51796 0.09391,-1.00619 0.251663,-1.43764 0.484371,-1.32466 2.104713,-2.11671 3.741891,-2.08772 0.744181,0.0132 1.491856,0.19632 2.137855,0.57567 1.091208,0.64081 2.079371,1.70978 2.863392,2.94969 h 3.050458 v 5.3e-4 h 0.0047 l -0.0047,-0.003 v 5.3e-4 c -3.631306,-2.01904 -6.644857,-4.84861 -8.185547,-8.17625 -2.708367,-5.84965 0.814023,-15.44608 6.663677,-18.15445 0.490379,-0.227042 0.999432,-0.423037 1.52187,-0.593244 v 5.3e-4 c 1.688788,-0.550281 3.529407,-0.81126 5.432227,-0.811837 8.137982,-0.0024 17.389022,4.712221 20.527946,11.491811 2.251872,4.86367 0.194329,12.31424 -3.924826,16.24552 H 73.287 c 1.783554,-2.71325 4.957135,-5.2513 8.059454,-6.72207 -1.069485,-1.81192 -1.492604,-3.63758 -0.802018,-4.47621 0.235858,-0.28643 0.686163,-0.42061 1.251088,-0.42375 1.242835,-0.007 3.040491,0.61889 4.330483,1.64486 0.955267,0.75975 1.804413,1.72668 2.467552,2.728 1.89829,1.75841 1.724363,5.01475 0.598413,7.24917 h 2.550231 c -0.414207,-0.78515 -0.751694,-1.73176 -0.949814,-2.79983 -0.482547,-2.60148 0.145296,-6.86895 1.187524,-8.07341 0.369768,-0.42733 0.794827,-0.62442 1.238684,-0.62476 1.449935,-0.001 3.098395,2.09524 3.657658,5.11027 0.344789,1.85881 0.116523,4.55276 -0.418579,6.38773 h 3.580664 c -4.578431,-7.00861 -5.623109,-21.43294 -1.768371,-29.038026 1.674524,-3.303701 4.995371,-5.146032 8.161781,-5.154726 2.02974,-0.0056 3.99608,0.74217 5.42447,2.341978 5.53536,6.199616 7.0779,22.354154 2.91817,30.560934 -0.23286,0.45943 -0.49998,0.88793 -0.79168,1.28984 h 3.04064 c -0.0744,-0.21706 -0.14249,-0.43854 -0.20051,-0.66662 -0.66188,-2.60148 0.19931,-6.86947 1.62884,-8.07393 0.50718,-0.42734 1.09032,-0.62444 1.69913,-0.62477 1.98874,-10e-4 4.24964,2.09575 5.01674,5.1108 0.30946,1.21634 0.2764,2.79302 0.0176,4.25452 h 4.18941 c -0.92535,-0.52468 -1.75293,-1.2273 -2.37091,-2.09909 -1.73854,-2.45259 -2.59902,-6.0536 -2.59881,-9.54102 -3.42384,-1.7574 -6.42953,-4.51075 -7.29258,-7.18768 -0.24272,-0.75288 -0.24342,-1.54219 -0.0527,-2.3058 0.57206,-2.29082 2.86864,-4.349684 5.53506,-4.495859 0.0512,-0.0019 0.10369,-0.0027 0.15762,-0.0026 3.39754,0.0072 12.06359,3.678909 14.69677,6.576859 3.57375,5.04155 3.43726,14.93725 -0.25838,18.72031 -0.11931,0.12213 -0.25128,0.229 -0.38395,0.33486 h 1.14825 c 0.0181,-0.51797 0.0939,-1.00619 0.25166,-1.43764 0.48437,-1.32466 2.10471,-2.11672 3.74189,-2.08773 0.74418,0.0132 1.49186,0.19633 2.13786,0.57567 1.0912,0.64081 2.07937,1.70978 2.86339,2.9497 h 3.05046 v -0.002 c -3.63131,-2.01904 -6.64486,-4.84861 -8.18555,-8.17625 -2.70837,-5.84965 0.81402,-15.44608 6.66368,-18.154447 0.49038,-0.227042 0.99943,-0.423037 1.52187,-0.593244 v -2.553332 c -0.55187,-0.0735 -1.10454,-0.150368 -1.65572,-0.245465 -2.56164,3.756697 -6.69715,6.729218 -10.82518,7.075538 -1.16099,0.0974 -2.39179,-0.11364 -3.59202,-0.55449 -3.6007,-1.32256 -6.92984,-4.713094 -7.2962,-8.046019 -0.34489,-4.079996 5.02729,-14.068231 9.47746,-16.5809 2.15811,-0.860306 4.92979,-1.254591 7.93491,-1.253154 1.92322,7.94e-4 3.94216,0.164256 5.95675,0.471289 v -1.097089 c -3.47077,0.09832 -6.93275,-0.800021 -9.21081,-2.798797 -7.33493,-6.435686 -8.34306,-21.876708 -1.90738,-29.211651 2.39145,-2.72559 6.66545,-4.128858 10.80968,-4.078306 0.10332,0.0013 0.20538,0.0114 0.30851,0.01447 v -5.109112 c -2.41775,0.322871 -5.85302,0.22075 -7.41764,-0.459401 -2.66639,-1.565791 -4.73215,-5.66383 -4.62762,-8.647536 0.0181,-0.517959 0.0939,-1.006188 0.25166,-1.437638 0.48437,-1.324669 2.10471,-2.116718 3.74189,-2.087728 0.74418,0.0132 1.49186,0.196326 2.13786,0.575676 1.0912,0.640809 2.07937,1.709782 2.86339,2.94969 0.30971,0.489803 0.59079,1.003442 0.82889,1.532207 0.75467,0.03856 1.50744,0.153737 2.22157,0.328145 v -1.860352 -0.0021 c -3.63131,-2.019041 -6.64486,-4.848611 -8.18555,-8.176248 -2.70837,-5.849654 0.81402,-15.4460809 6.66368,-18.1544472 0.49038,-0.2270438 0.99943,-0.4230396 1.52187,-0.5932454 v -2.5533327 c -0.55187,-0.0735 -1.10454,-0.1503669 -1.65572,-0.2454629 -2.56164,3.75669523 -6.69715,6.7292175 -10.82518,7.0755371 -1.16099,0.0974 -2.39179,-0.1136386 -3.59202,-0.5544881 -3.6007,-1.3225587 -6.92984,-4.7130958 -7.2962,-8.0460206 -0.34489,-4.0799972 5.02729,-14.0682312 9.47746,-16.5809002 2.15811,-0.860308 4.92979,-1.25459 7.93491,-1.253153 1.92322,9.26e-4 3.94216,0.164254 5.95675,0.471289 v -1.097091 c -3.47077,0.09832 -6.93275,-0.80002 -9.21081,-2.798795 -7.33493,-6.435688 -8.34306,-21.876708 -1.90738,-29.211654 2.39145,-2.725587 6.66545,-4.128855 10.80968,-4.078303 0.10332,0.0013 0.20538,0.0114 0.30851,0.01447 v -5.109247 c -2.41775,0.322869 -5.85302,0.22075 -7.41764,-0.459404 -2.66639,-1.565788 -4.73215,-5.663827 -4.62762,-8.647533 h -1.14877 c -1.87144,1.492724 -4.99442,1.381239 -7.43107,0 h -4.19044 c -0.29481,1.664002 -0.88482,3.177635 -1.6459,3.818887 -2.03852,1.717599 -5.30517,-0.288597 -6.51485,-3.818887 h -3.04115 c -3.15052,4.340855 -9.44776,5.271341 -12.79457,1.522902 -0.40584,-0.454544 -0.78756,-0.968388 -1.1498,-1.522902 h -3.580145 c -0.213826,0.733317 -0.471858,1.342271 -0.769464,1.6862 -1.149773,1.328777 -2.833547,0.423503 -3.946528,-1.6862 h -2.550231 c -0.0045,0.0089 -0.0084,0.01849 -0.01291,0.02739 -2.688201,4.902475 -10.297625,9.517867 -14.395505,8.73125 -0.16918,-0.03249 -0.331399,-0.07933 -0.487307,-0.139525 -2.338792,-0.903018 -3.153135,-4.796925 -1.488281,-7.833114 0.144388,-0.263324 0.307562,-0.525135 0.479041,-0.785998 h -1.251606 c -0.835054,0.796967 -1.752862,1.452417 -2.73885,1.908926 -5.526117,2.558574 -13.260682,1.443041 -19.291846,-1.908926 h -0.0047 -3.050458 c 0.309708,0.489802 0.590788,1.00344 0.828889,1.532205 0.754669,0.03856 1.50744,0.153736 2.221569,0.328147 1.421818,0.347175 2.679504,0.946033 3.416847,1.761648 0.311508,0.34458 0.501944,0.7673 0.583944,1.222148 0.246107,1.364514 -0.486529,3.020645 -1.878957,3.741891 -0.466096,0.229367 -1.229159,0.401717 -2.121834,0.520898 -2.417747,0.322869 -5.853017,0.22075 -7.417634,-0.459404 -2.666388,-1.565788 -4.732155,-5.663827 -4.627626,-8.647533 H 36.80602 c -1.871437,1.492724 -4.99442,1.381239 -7.431069,0 h -4.190445 c -0.294809,1.664002 -0.884815,3.177635 -1.645894,3.818887 -2.038518,1.717599 -5.305169,-0.288597 -6.514848,-3.818887 h -3.041158 c -3.150517,4.340855 -9.4477613,5.271341 -12.7945678,1.522902 -0.40583963,-0.454544 -0.78756099,-0.968388 -1.14980064,-1.522902 H -3.5419027 c -0.2138238,0.733317 -0.4718582,1.342271 -0.7694621,1.6862 -1.1497749,1.328777 -2.8335491,0.423503 -3.9465292,-1.6862 h -2.550232 c -0.0045,0.0089 -0.0084,0.01849 -0.01292,0.02739 -2.6882,4.902475 -10.297626,9.517867 -14.395504,8.73125 -0.169179,-0.03249 -0.331399,-0.07933 -0.487308,-0.139525 -2.33879,-0.903018 -3.153135,-4.796925 -1.488281,-7.833114 0.144391,-0.263324 0.307562,-0.525135 0.479041,-0.785998 h -1.251603 c -0.835055,0.796967 -1.752865,1.452417 -2.738851,1.908926 -5.526119,2.558574 -13.260684,1.443041 -19.291845,-1.908926 z m 196.949738,0 c 0.30971,0.489802 0.59079,1.00344 0.82889,1.532204 0.75467,0.03856 1.50744,0.153737 2.22157,0.328147 v -1.860351 z m -156.2095899,1.36839 c 0.6443114,-0.0033 1.3943166,0.688041 1.4614096,1.378212 0.1065869,1.096135 -0.8994571,2.456127 -1.9032432,2.572451 -0.6630745,0.07694 -1.4850825,-0.64893 -1.5554605,-1.373042 -0.106587,-1.096134 0.898939,-2.456129 1.9027262,-2.572453 0.03108,-0.0036 0.062878,-0.005 0.094568,-0.0052 z m 100.0000979,0 c 0.644311,-0.0033 1.394315,0.688041 1.461408,1.378212 0.106587,1.096135 -0.899457,2.456127 -1.903241,2.572451 -0.663075,0.07694 -1.485082,-0.64893 -1.555461,-1.373042 -0.106588,-1.096134 0.89894,-2.456129 1.902727,-2.572453 0.03108,-0.0036 0.06288,-0.005 0.09457,-0.0052 z m -61.117199,0.04651 c 2.876047,-0.01143 6.6847,0.943089 7.971089,2.110983 0.988848,0.897766 -0.0384,2.203868 -1.94355,2.471166 -2.883858,0.404625 -7.796096,-0.66516 -9.292974,-2.024165 -0.988849,-0.897766 0.0385,-2.204384 1.94355,-2.471685 0.40554,-0.0569 0.851254,-0.08443 1.321885,-0.0863 z m 100.000101,0 c 2.87604,-0.01143 6.6847,0.943089 7.97109,2.110983 0.98884,0.897766 -0.0384,2.203868 -1.94356,2.471166 -2.88385,0.404625 -7.79609,-0.66516 -9.29297,-2.024165 -0.98885,-0.897766 0.0385,-2.204384 1.94355,-2.471685 0.40554,-0.0569 0.85126,-0.08443 1.32189,-0.0863 z m -131.5408124,0.0083 c 0.02289,-5.29e-4 0.045503,6.6e-5 0.068213,0.0011 1.12593885,0.08162 1.61263498,1.667513 2.80706378,1.286227 1.19862882,0.05317 2.51126242,1.353727 2.48305252,2.460831 -0.1754598,2.507234 -3.06749313,3.753851 -3.77909744,2.982246 -0.88556806,-0.05402 -1.85535336,-1.375378 -1.83451336,-2.500106 0.05343,-1.707626 -0.6726926,-0.914707 -1.254187,-2.881476 0.016481,-0.646438 0.7997383,-1.335501 1.5094686,-1.348756 z m 100.0000984,0 c 0.02289,-5.29e-4 0.0455,6.6e-5 0.06821,0.0011 1.12594,0.08162 1.612635,1.667513 2.807064,1.286227 1.19863,0.05317 2.51126,1.353727 2.48305,2.460831 -0.17546,2.507234 -3.06749,3.753851 -3.779094,2.982246 -0.885569,-0.05402 -1.855354,-1.375378 -1.834513,-2.500106 0.05343,-1.707626 -0.672695,-0.914707 -1.254188,-2.881476 0.01648,-0.646438 0.799737,-1.335501 1.509469,-1.348756 z m -127.802018,0.827339 c 0.401973,-0.0088 0.907994,0.373067 0.967382,0.735356 0.0913,0.557128 -0.493037,1.218724 -1.105876,1.251604 -0.40485,0.02169 -0.92669,-0.366282 -0.98702,-0.734322 -0.0913,-0.557128 0.493554,-1.218724 1.106392,-1.251604 0.0063,-2.64e-4 0.01273,-7.94e-4 0.01913,-0.0011 z m 100.000096,0 c 0.401976,-0.0088 0.907997,0.373067 0.967383,0.735356 0.0913,0.557128 -0.493038,1.218724 -1.105874,1.251604 -0.404852,0.02169 -0.92669,-0.366282 -0.98702,-0.734322 -0.0913,-0.557128 0.493551,-1.218724 1.106392,-1.251604 0.0063,-2.64e-4 0.01275,-7.94e-4 0.01913,-0.0011 z m -115.257046,0.278537 c 0.561086,-2.64e-4 1.180214,0.274706 1.432986,0.711584 0.237498,0.41044 0.04356,1.137105 -0.366903,1.374595 -0.621297,0.359508 -1.720995,0.06583 -2.080493,-0.555522 -0.23749,-0.41043 -0.04356,-1.137105 0.366903,-1.374595 0.184447,-0.106728 0.410602,-0.155932 0.647507,-0.156062 z m 100.000097,0 c 0.561086,-2.64e-4 1.180216,0.274706 1.432988,0.711584 0.237498,0.41044 0.04356,1.137105 -0.366903,1.374595 -0.6213,0.359508 -1.720995,0.06583 -2.080495,-0.555522 -0.237488,-0.41043 -0.04356,-1.137105 0.366903,-1.374595 0.184449,-0.106728 0.410604,-0.155932 0.647507,-0.156062 z m -60.6231731,0.274402 c 0.018431,-2.64e-4 0.037014,-2.64e-4 0.055294,5.29e-4 0.8855721,0.03836 1.8548416,0.976921 1.8339967,1.775603 -0.013689,0.527598 -0.6851973,1.090935 -1.2702069,1.065567 -0.8855702,-0.03836 -1.8548406,-0.976918 -1.8339964,-1.7756 0.013261,-0.511101 0.6436534,-1.055608 1.2149129,-1.066086 z m 100.0000971,0 c 0.01844,-2.64e-4 0.03701,-2.64e-4 0.0553,5.29e-4 0.885571,0.03836 1.85484,0.976921 1.833996,1.775603 -0.01368,0.527598 -0.685196,1.090935 -1.270206,1.065567 -0.885571,-0.03836 -1.85484,-0.976918 -1.833996,-1.7756 0.01326,-0.511101 0.643652,-1.055608 1.214911,-1.066086 z m -136.48159,0.320911 c 0.458203,-0.0021 0.992016,0.448701 1.039728,0.898136 0.0758,0.713798 -0.639559,1.599083 -1.353405,1.674833 -0.471548,0.0501 -1.056859,-0.422462 -1.106908,-0.894003 -0.0758,-0.713795 0.640072,-1.599599 1.353921,-1.67535 0.02209,-0.0024 0.04413,-0.0035 0.06666,-0.0036 z m 100.000096,0 c 0.458206,-0.0021 0.992016,0.448701 1.039731,0.898136 0.0758,0.713798 -0.639559,1.599083 -1.353407,1.674833 -0.471549,0.0501 -1.05686,-0.422462 -1.106909,-0.894003 -0.0758,-0.713795 0.640075,-1.599599 1.353924,-1.67535 0.02209,-0.0024 0.04413,-0.0035 0.06666,-0.0036 z m -91.988701,1.053682 c 0.850231,-0.0035 1.629244,0.07107 2.286683,0.236161 2.316303,0.581639 2.904625,3.004437 1.11311,4.5837 -2.71191,2.390635 -9.684586,4.084405 -13.190926,3.203938 -2.316311,-0.581636 -2.904625,-3.00495 -1.11311,-4.584216 2.203436,-1.942388 7.219918,-3.424349 10.904243,-3.439583 z m 100.000099,0 c 0.850228,-0.0035 1.629244,0.07107 2.286683,0.236161 2.316303,0.581639 2.904622,3.004437 1.11311,4.5837 -2.711913,2.390635 -9.684589,4.084405 -13.190926,3.203938 -2.316314,-0.581636 -2.904628,-3.00495 -1.11311,-4.584216 2.203434,-1.942388 7.219915,-3.424349 10.904243,-3.439583 z m -50.838241,0.349332 c 6.503484,0.04422 13.677653,1.347245 17.56172,3.58893 4.105336,2.369391 3.643326,6.900719 -0.87385,8.572603 -6.837913,2.530827 -21.473728,1.347039 -27.688232,-2.239658 -4.10534099,-2.369389 -3.64383386,-6.901239 0.8733316,-8.57312 2.5642176,-0.94906 6.2249444,-1.375288 10.1270304,-1.348755 z m 100.000098,0 c 6.50348,0.04422 13.67765,1.347245 17.56172,3.58893 4.10533,2.369391 3.64333,6.900719 -0.87385,8.572603 -6.83791,2.530827 -21.47373,1.347039 -27.68823,-2.239658 -4.105343,-2.369389 -3.64384,-6.901239 0.87333,-8.57312 2.56422,-0.94906 6.22494,-1.375288 10.12703,-1.348755 z M -8.0093301,-69.21491 c 0.2863466,-1.4e-4 0.5675016,0.0078 0.8428426,0.02429 5.82053,0.347937 9.1623658,6.487091 6.32209461,11.613761 -2.09159391,3.77531 -6.64514691,7.633414 -11.78429411,10.539926 0.408658,4.873976 -1.01605,10.161357 -4.204911,13.251902 -0.896856,0.869204 -2.059517,1.527971 -3.351733,1.974559 -3.876656,1.339749 -8.922262,0.769477 -11.472684,-1.763718 -3.036234,-3.171335 -5.315304,-15.153291 -3.319695,-20.270597 4.165134,-7.51804 18.091611,-15.365833 26.9683799,-15.370123 z m 100.0000971,0 c 0.286348,-1.4e-4 0.567502,0.0078 0.842844,0.02429 5.820529,0.347937 9.162369,6.487091 6.322094,11.613761 -2.091595,3.77531 -6.645148,7.633414 -11.784293,10.539926 0.408657,4.873976 -1.01605,10.161357 -4.204912,13.251902 -0.896855,0.869204 -2.059516,1.527971 -3.351733,1.974559 -3.876657,1.339749 -8.922264,0.769477 -11.472686,-1.763718 -3.036231,-3.171335 -5.315304,-15.153291 -3.319692,-20.270597 4.165134,-7.51804 18.09161,-15.365833 26.968378,-15.370123 z m -52.278978,1.81746 c 0.0678,1.85e-4 0.135067,0.0038 0.201538,0.01138 0.02249,0.0024 0.04539,0.0064 0.06769,0.0098 0.878911,0.134742 1.738294,1.326885 1.754933,2.356445 0.0345,0.0031 0.0688,0.0061 0.102836,0.01138 0.94406,0.14473 1.866979,1.510586 1.745631,2.583305 -0.183711,1.623851 -1.992945,3.198736 -3.422015,2.979663 -0.879078,-0.134768 -1.738612,-1.327777 -1.754931,-2.35748 -0.0344,-0.0032 -0.0683,-0.0062 -0.10232,-0.01138 -0.94406,-0.144729 -1.86699,-1.509522 -1.745628,-2.58227 0.172347,-1.523555 1.774672,-3.004632 3.152262,-3.000851 z m 100.000101,0 c 0.0678,1.85e-4 0.13506,0.0038 0.20153,0.01138 0.0225,0.0024 0.0454,0.0064 0.0677,0.0098 0.87891,0.134742 1.73829,1.326885 1.75493,2.356445 0.0345,0.0031 0.0688,0.0061 0.10284,0.01138 0.94406,0.14473 1.86698,1.510586 1.74563,2.583305 -0.18371,1.623851 -1.99295,3.198736 -3.42202,2.979663 -0.87908,-0.134768 -1.73861,-1.327777 -1.75493,-2.35748 -0.0344,-0.0032 -0.0683,-0.0062 -0.10232,-0.01138 -0.94406,-0.144729 -1.86699,-1.509522 -1.74563,-2.58227 0.17235,-1.523555 1.77468,-3.004632 3.15227,-3.000851 z m -170.901717,3.518649 c 0.4264,-0.0047 0.802214,0.03003 1.107943,0.109553 1.292585,0.336196 0.98924,1.970228 -0.574125,3.091286 -2.36655,1.697 -7.214354,3.02918 -9.171016,2.520259 -1.29259,-0.336195 -0.988722,-1.97023 0.57464,-3.091285 1.996771,-1.431841 5.760001,-2.60417 8.062558,-2.629813 z m 100.000097,0 c 0.426402,-0.0047 0.802214,0.03003 1.107942,0.109553 1.292588,0.336196 0.989243,1.970228 -0.574124,3.091286 -2.366548,1.697 -7.214354,3.02918 -9.171017,2.520259 -1.292588,-0.336195 -0.988721,-1.97023 0.574643,-3.091285 1.996768,-1.431841 5.759998,-2.60417 8.062556,-2.629813 z m -19.118729,3.080432 c 0.10332,0.0013 0.205378,0.0114 0.308507,0.01447 3.113987,0.09277 6.127507,1.003162 8.179348,2.803448 7.33493,6.435688 8.343061,21.877248 1.907376,29.21217 -2.252628,2.567393 -6.175285,3.947811 -10.086724,4.058667 -3.470767,0.09832 -6.93275,-0.80002 -9.210807,-2.798795 -7.334933,-6.435688 -8.343059,-21.876708 -1.907376,-29.211654 2.391447,-2.725587 6.665449,-4.128855 10.809676,-4.078303 z m -46.3088018,1.021125 c 0.3398197,-7.93e-4 0.6653588,0.06182 0.9441286,0.198954 0.7366291,0.362376 1.1588572,1.600366 0.7989176,2.341978 -0.5448594,1.122616 -2.4061534,1.766043 -3.5212322,1.217496 -0.73662925,-0.362374 -1.15884726,-1.599848 -0.79891761,-2.34146 0.40864961,-0.841962 1.55763471,-1.414713 2.57710361,-1.416968 z m 100.0001008,0 c 0.33982,-7.93e-4 0.66536,0.06182 0.94413,0.198954 0.73662,0.362376 1.15885,1.600366 0.79891,2.341978 -0.54486,1.122616 -2.40615,1.766043 -3.52123,1.217496 -0.73663,-0.362374 -1.15885,-1.599848 -0.79892,-2.34146 0.40865,-0.841962 1.55764,-1.414713 2.57711,-1.416968 z m -67.126655,0.105421 c 0.631018,0.01286 1.335019,0.717476 1.400947,1.401982 0.0021,0.02278 0.0031,0.04498 0.0041,0.0677 0.006,1.128879 -1.538028,1.737141 -1.06557,2.898532 0.0396,1.199147 -1.15539,2.60803 -2.261359,2.665468 -2.513298,0.01884 -3.979733,-2.768148 -3.265435,-3.537249 -0.0146,-0.887095 1.227794,-1.955951 2.350762,-2.022099 1.706658,-0.07871 0.860119,-0.74154 2.776056,-1.473296 0.02019,-0.0011 0.04006,-0.0013 0.06046,-0.0011 z m 100.000095,0 c 0.63102,0.01286 1.33502,0.717476 1.40095,1.401982 0.002,0.02278 0.003,0.04498 0.004,0.0677 0.006,1.128879 -1.53802,1.737141 -1.06556,2.898532 0.0396,1.199147 -1.1554,2.60803 -2.26136,2.665468 -2.5133,0.01884 -3.97974,-2.768148 -3.26544,-3.537249 -0.0146,-0.887095 1.22779,-1.955951 2.35076,-2.022099 1.70666,-0.07871 0.86012,-0.74154 2.77606,-1.473296 0.0202,-0.0011 0.0401,-0.0013 0.0605,-0.0011 z m -108.509653,3.108854 c 0.768228,0.0021 1.614297,0.383244 1.958538,0.986502 0.323427,0.566777 0.055,1.567812 -0.507981,1.893427 -0.8522,0.492895 -2.356758,0.08334 -2.846338,-0.774631 -0.323429,-0.566775 -0.055,-1.567297 0.507979,-1.892909 0.252989,-0.146328 0.563433,-0.21323 0.887802,-0.212389 z m 100.000093,0 c 0.76823,0.0021 1.6143,0.383244 1.95854,0.986502 0.32343,0.566777 0.055,1.567812 -0.50798,1.893427 -0.8522,0.492895 -2.35676,0.08334 -2.84634,-0.774631 -0.32343,-0.566775 -0.055,-1.567297 0.50798,-1.892909 0.25299,-0.146328 0.56343,-0.21323 0.8878,-0.212389 z m -104.220507,0.08888 c 0.781479,-0.01527 1.657806,0.36984 2.009696,0.986502 0.32342,0.56678 0.055,1.567296 -0.507979,1.892908 -0.852209,0.492895 -2.356749,0.08386 -2.846338,-0.774112 -0.32342,-0.56678 -0.055,-1.56781 0.507979,-1.893425 0.23968,-0.138628 0.530852,-0.205893 0.836642,-0.211873 z m 100.000097,0 c 0.78148,-0.01527 1.65781,0.36984 2.0097,0.986502 0.32342,0.56678 0.055,1.567296 -0.50798,1.892908 -0.85221,0.492895 -2.35675,0.08386 -2.84634,-0.774112 -0.32342,-0.56678 -0.055,-1.56781 0.50798,-1.893425 0.23968,-0.138628 0.53085,-0.205893 0.83664,-0.211873 z m -112.105302,0.274402 c 2.854897,-0.0063 5.588785,0.519621 7.930782,1.671733 6.188564,3.044365 9.737192,13.444358 6.713286,19.674766 -4.577496,9.431357 -20.2152039,14.839344 -29.5832075,10.230901 -6.1885618,-3.044394 -9.7366855,-13.444358 -6.7127685,-19.674769 3.4331176,-7.073514 13.0871969,-11.883716 21.651908,-11.902631 z m 100.000102,0 c 2.85489,-0.0063 5.58878,0.519621 7.93078,1.671733 6.18856,3.044365 9.73719,13.444358 6.71328,19.674766 -4.57749,9.431357 -20.2152,14.839344 -29.583204,10.230901 -6.188562,-3.044394 -9.736685,-13.444358 -6.712767,-19.674769 3.433117,-7.073514 13.087191,-11.883716 21.651911,-11.902631 z m -81.967093,3.480406 c 1.781146,0.0041 3.742688,0.790887 4.540806,2.034503 0.749861,1.168413 0.127037,3.23084 -1.178221,3.902086 -1.975837,1.016111 -5.46448,0.172413 -6.599598,-1.596285 -0.749859,-1.168415 -0.127036,-3.231356 1.178224,-3.902604 0.586568,-0.301659 1.30674,-0.439433 2.058789,-0.4377 z m 100.000093,0 c 1.78115,0.0041 3.74269,0.790887 4.54081,2.034503 0.74986,1.168413 0.12704,3.23084 -1.17822,3.902086 -1.97584,1.016111 -5.46448,0.172413 -6.5996,-1.596285 -0.74986,-1.168415 -0.12703,-3.231356 1.17822,-3.902604 0.58657,-0.301659 1.30674,-0.439433 2.05879,-0.4377 z m -99.292645,7.746299 c 1.201299,-0.0048 2.571925,0.272735 3.295923,0.749308 0.7288,0.479737 0.64276,1.381583 -0.16278,1.706356 -1.219398,0.491628 -3.824118,0.22856 -4.927348,-0.497644 -0.728798,-0.479737 -0.642758,-1.381583 0.162782,-1.706356 0.419169,-0.168998 1.002176,-0.249177 1.631423,-0.251664 z m 100.000095,0 c 1.2013,-0.0048 2.57193,0.272735 3.29593,0.749308 0.7288,0.479737 0.64276,1.381583 -0.16278,1.706356 -1.2194,0.491628 -3.82412,0.22856 -4.92735,-0.497644 -0.7288,-0.479737 -0.64276,-1.381583 0.16278,-1.706356 0.41917,-0.168998 1.00217,-0.249177 1.63142,-0.251664 z m -98.883884,3.923273 c 0.935501,-0.0076 1.839963,0.229185 2.397271,0.723472 1.799709,1.596273 1.644854,5.354764 -0.293005,7.110677 -1.280168,1.159965 -4.049035,1.278226 -5.237922,0.223758 -1.79973,-1.596268 -1.644854,-5.354767 0.293005,-7.110677 0.680098,-0.616236 1.780413,-0.938641 2.840651,-0.94723 z m 100.000104,0 c 0.93549,-0.0076 1.83996,0.229185 2.39726,0.723472 1.79971,1.596273 1.64486,5.354764 -0.293,7.110677 -1.28017,1.159965 -4.04903,1.278226 -5.23792,0.223758 -1.79973,-1.596268 -1.64486,-5.354767 0.293,-7.110677 0.6801,-0.616236 1.78042,-0.938641 2.84066,-0.94723 z m -144.859897,5.004864 c 0.204073,-0.003 0.423501,0.06269 0.63562,0.209288 1.081591,0.747517 2.295631,3.066537 2.296501,4.387329 5.82e-4,0.872527 -0.800131,1.297384 -1.514636,0.803569 -1.081594,-0.747515 -2.295114,-3.06705 -2.295984,-4.387845 -3.97e-4,-0.613492 0.39517,-1.005274 0.878499,-1.012341 z m 100.000098,0 c 0.204073,-0.003 0.4235,0.06269 0.635619,0.209288 1.081593,0.747517 2.295631,3.066537 2.296501,4.387329 5.29e-4,0.872527 -0.800129,1.297384 -1.514636,0.803569 -1.081593,-0.747515 -2.295112,-3.06705 -2.295983,-4.387845 -5.29e-4,-0.613492 0.395169,-1.005274 0.878499,-1.012341 z m -54.948585,4.048847 c 2.923918,0.01069 5.086353,1.527149 4.505153,3.635955 -1.126159,4.086055 -2.931996,10.381614 -9.122442,12.133626 -4.089455,1.157387 -9.472098,-0.696901 -8.728149,-3.396175 1.126149,-4.086056 4.563412,-10.256043 10.753866,-12.008053 0.894569,-0.25318 1.772875,-0.368348 2.591572,-0.365353 z m 100.000094,0 c 2.92392,0.01069 5.08636,1.527149 4.50516,3.635955 -1.12616,4.086055 -2.932,10.381614 -9.12244,12.133626 -4.08946,1.157387 -9.4721,-0.696901 -8.72815,-3.396175 1.12614,-4.086056 4.56341,-10.256043 10.75386,-12.008053 0.89457,-0.25318 1.77288,-0.368348 2.59157,-0.365353 z m -167.013057,1.123448 c 0.266875,-0.0034 0.524079,0.04184 0.746726,0.145211 1.348153,0.625864 2.18531,2.803541 1.583364,4.119644 -0.01651,0.03611 -0.03529,0.07162 -0.05529,0.106453 0.176297,2.196293 -1.933395,4.882444 -4.039031,5.114417 -1.405237,0.155002 -3.148323,-1.307367 -3.297473,-2.76624 -0.184751,-1.806216 1.207902,-3.967427 2.885096,-4.82296 0.02027,-0.279913 0.08189,-0.546058 0.190685,-0.783934 0.298132,-0.652071 1.185304,-1.102503 1.985925,-1.112591 z m 100.000099,0 c 0.266872,-0.0034 0.524079,0.04184 0.746723,0.145211 1.348153,0.625864 2.185313,2.803541 1.583365,4.119644 -0.01651,0.03611 -0.03529,0.07162 -0.05529,0.106453 0.176297,2.196293 -1.933395,4.882444 -4.039031,5.114417 -1.405237,0.155002 -3.148322,-1.307367 -3.297473,-2.76624 -0.184748,-1.806216 1.207902,-3.967427 2.885096,-4.82296 0.02027,-0.279913 0.08189,-0.546058 0.190685,-0.783934 0.298133,-0.652071 1.185307,-1.102503 1.985928,-1.112591 z m -80.247299,0.04496 c 0.483467,0.0011 0.927411,0.02975 1.321366,0.08992 6.3612725,1.782593 12.918636,10.134516 12.4049275,15.800069 -0.3393556,3.742697 -5.4322571,6.6191213 -9.6345545,5.4415286 -3.094596,-0.8671836 -6.23537,-3.2892206 -8.586039,-6.2001386 -4.023163,0.856785 -8.370808,0.598522 -10.890808,-1.050065 -0.70874,-0.46366 -1.241698,-1.122018 -1.598351,-1.888773 -1.069959,-2.300265 -0.554003,-5.577528 1.558044,-7.509103 2.39491,-2.101196 10.751903,-4.693499 15.425415,-4.683434 z m 100.000096,0 c 0.483468,0.0011 0.927412,0.02975 1.321369,0.08992 6.361271,1.782593 12.918636,10.134516 12.404926,15.800069 -0.339355,3.742697 -5.432258,6.6191213 -9.634553,5.4415286 -3.094599,-0.8671836 -6.235372,-3.2892206 -8.586039,-6.2001386 -4.023164,0.856785 -8.370808,0.598522 -10.890808,-1.050065 -0.70874,-0.46366 -1.241701,-1.122018 -1.598354,-1.888773 -1.069959,-2.300265 -0.554003,-5.577528 1.558044,-7.509103 2.394911,-2.101196 10.751905,-4.693499 15.425415,-4.683434 z m -66.050747,4.486043 c 0.290439,-9e-4 0.580997,0.08843 0.760677,0.268201 0.543979,0.544352 0.547734,1.768989 0.0072,2.316655 -0.357189,0.361789 -1.160444,0.364143 -1.519804,0.0047 -0.543989,-0.544348 -0.547734,-1.768988 -0.0072,-2.316654 0.1786,-0.180896 0.468687,-0.271958 0.759127,-0.272852 z m 100.000098,0 c 0.29044,-9e-4 0.581,0.08843 0.76068,0.268201 0.54398,0.544352 0.54721,1.768989 0.007,2.316655 -0.35719,0.361789 -1.16044,0.364143 -1.5198,0.0047 -0.54399,-0.544348 -0.54722,-1.768988 -0.007,-2.316654 0.1786,-0.180896 0.46869,-0.271958 0.75913,-0.272852 z m -102.277479,1.237651 c 0.15392,5.82e-4 0.302256,0.02447 0.436666,0.07596 0.47356,0.181393 0.802354,0.919536 0.622184,1.396298 -0.272739,0.721701 -1.382237,1.223368 -2.099096,0.948779 -0.47356,-0.181393 -0.802364,-0.919538 -0.622185,-1.396297 0.2216,-0.586386 0.995432,-1.027294 1.662431,-1.024744 z m 100.000099,0 c 0.15392,5.82e-4 0.30225,0.02447 0.43666,0.07596 0.47356,0.181393 0.80236,0.919536 0.62219,1.396298 -0.27274,0.721701 -1.38224,1.223368 -2.0991,0.948779 -0.47356,-0.181393 -0.80236,-0.919538 -0.62218,-1.396297 0.2216,-0.586386 0.99543,-1.027294 1.66243,-1.024744 z m -71.837994,1.020093 c 1.92322,9.26e-4 3.942154,0.164254 5.956742,0.471289 6.030042,0.918961 12.022347,3.127074 15.302942,6.134509 4.022468,3.68753 2.848996,10.0881106 -2.220018,12.1088216 -3.354478,1.3372346 -8.191672,1.5413427 -13.082924,0.8898681 -0.551868,-0.0735 -1.104532,-0.1503669 -1.655712,-0.2454629 -2.561648,3.75669523 -6.697152,6.7292175 -10.825178,7.0755371 -1.161,0.0974 -2.391791,-0.1136386 -3.592029,-0.5544881 -3.600696,-1.3225587 -6.929837,-4.7130958 -7.296195,-8.0460206 -0.344891,-4.0799972 5.02729,-14.0682312 9.477457,-16.5809002 2.158106,-0.860308 4.929788,-1.25459 7.934915,-1.253153 z m -46.3553096,0.832507 c 0.5995224,0.0016 1.2594294,0.299723 1.52807213,0.770496 0.25239673,0.442306 0.0429693,1.222808 -0.39635823,1.476912 -0.6650503,0.384651 -1.8389855,0.06545 -2.2210531,-0.604097 -0.2523988,-0.442308 -0.042989,-1.223328 0.3963582,-1.47743 0.1974369,-0.114193 0.4398513,-0.166538 0.692981,-0.165881 z m 100.0000966,0 c 0.599522,0.0016 1.25943,0.299723 1.528072,0.770496 0.252399,0.442306 0.04297,1.222808 -0.396356,1.476912 -0.665052,0.384651 -1.838987,0.06545 -2.221053,-0.604097 -0.252399,-0.442308 -0.04299,-1.223328 0.396356,-1.47743 0.197438,-0.114193 0.439852,-0.166538 0.692981,-0.165881 z m -84.315266,0.557589 c 0.23607,-0.002 0.464109,0.01316 0.682129,0.04703 0.49053,0.07619 0.933838,0.299776 1.308447,0.623735 1.123849,0.971866 1.632482,2.851738 0.964283,4.398698 -0.8596,1.882981 -5.463026,5.848646 -7.8667036,6.525183 -3.8329564,0.58989 -9.34422721,-2.290063 -10.4262371,-5.448246 -0.7147522,-2.086324 1.32298035,-4.862707 3.8550618,-5.252393 1.8646283,-0.286965 4.1264782,0.247161 6.082316,1.235067 1.7052785,-1.256024 3.7482059,-2.115334 5.4007039,-2.129069 z m 100.000093,0 c 0.23607,-0.002 0.46411,0.01316 0.68213,0.04703 0.49053,0.07619 0.93384,0.299776 1.30845,0.623735 1.12385,0.971866 1.63248,2.851738 0.96428,4.398698 -0.8596,1.882981 -5.46302,5.848646 -7.8667,6.525183 -3.83296,0.58989 -9.344226,-2.290063 -10.426237,-5.448246 -0.714751,-2.086324 1.32298,-4.862707 3.855057,-5.252393 1.86463,-0.286965 4.12648,0.247161 6.08232,1.235067 1.70528,-1.256024 3.74821,-2.115334 5.4007,-2.129069 z m -95.123905,6.002734 c 0.54334,-0.002 1.085834,0.07988 1.585433,0.260449 1.942758,0.74306 5.839035,4.705759 6.390825,6.7711634 0.35987,3.2922157 -3.087973,8.0160522 -6.5226,8.93640531 -2.268927,0.60798839 -5.079258,-1.14948511 -5.316988,-3.32434491 -0.17506,-1.6015785 0.551127,-3.5418548 1.738395,-5.218286 -1.390728,-1.6770098 -2.199971,-3.7309568 -1.790071,-5.2275878 0.11528,-0.420923 0.383766,-0.800642 0.754476,-1.121379 0.764599,-0.661516 1.965201,-1.072065 3.16053,-1.07642 z m 100.000095,0 c 0.54334,-0.002 1.08584,0.07988 1.58544,0.260449 1.94275,0.74306 5.83903,4.705759 6.39082,6.7711634 0.35987,3.2922157 -3.08797,8.0160522 -6.5226,8.93640531 -2.26893,0.60798839 -5.07926,-1.14948511 -5.31699,-3.32434491 -0.17506,-1.6015785 0.55113,-3.5418548 1.7384,-5.218286 -1.39073,-1.6770098 -2.19997,-3.7309568 -1.79007,-5.2275878 0.11528,-0.420923 0.38376,-0.800642 0.75447,-1.121379 0.7646,-0.661516 1.9652,-1.072065 3.16053,-1.07642 z m -92.083265,1.594218 c 0.599529,0.0016 1.259948,0.299207 1.52859,0.769979 0.252399,0.442308 0.043,1.223325 -0.396359,1.477429 -0.665049,0.384651 -1.839501,0.06545 -2.22157,-0.604097 -0.25239,-0.442308 -0.0425,-1.223328 0.396875,-1.47743 0.197439,-0.114193 0.439334,-0.166538 0.692464,-0.165881 z m 100.000095,0 c 0.59953,0.0016 1.25995,0.299207 1.52859,0.769979 0.2524,0.442308 0.043,1.223325 -0.39636,1.477429 -0.66505,0.384651 -1.8395,0.06545 -2.22157,-0.604097 -0.25239,-0.442308 -0.0425,-1.223328 0.39688,-1.47743 0.19744,-0.114193 0.43933,-0.166538 0.69246,-0.165881 z m -146.936248,1.016475 c 0.01417,-2.91e-4 0.02874,-1.7e-4 0.04289,0 0.556858,0.0067 1.202066,0.570368 1.309998,1.11001 0.02163,-8.73e-4 0.04303,-0.0017 0.0646,-0.0016 0.598137,0.0072 1.298891,0.657526 1.325501,1.229899 0.04027,0.866444 -0.930113,1.8257666 -1.835547,1.8148766 -0.556962,-0.0067 -1.202247,-0.5707866 -1.309998,-1.1105266 -0.02163,7.68e-4 -0.04303,0.0019 -0.0646,0.0016 -0.598137,-0.0072 -1.298901,-0.656993 -1.325501,-1.229382 -0.03965,-0.852907 0.899639,-1.795997 1.792656,-1.814877 z m 100.000097,0 c 0.01418,-2.91e-4 0.02874,-1.7e-4 0.04289,0 0.556858,0.0067 1.202066,0.570368 1.309997,1.11001 0.02162,-8.73e-4 0.04303,-0.0017 0.0646,-0.0016 0.598138,0.0072 1.298892,0.657526 1.325501,1.229899 0.04027,0.866444 -0.930113,1.8257666 -1.835546,1.8148766 -0.556962,-0.0067 -1.202246,-0.5707866 -1.309998,-1.1105266 -0.02162,7.68e-4 -0.04303,0.0019 -0.06459,0.0016 -0.598138,-0.0072 -1.2989,-0.656993 -1.325502,-1.229382 -0.03965,-0.852907 0.899639,-1.795997 1.792656,-1.814877 z m -79.10421527,1.500167 c 1.07623897,0.01306 2.33697737,1.193082 2.38486737,2.232422 0.0725,1.5733246 -1.67296167,3.31569 -3.30212404,3.295923 -1.07623596,-0.013049 -2.33700146,-1.1930518 -2.38486726,-2.2324219 -0.07248,-1.5733231 1.6729686,-3.3156791 3.30212393,-3.2959231 z m 100.00009627,0 c 1.07624,0.01306 2.33698,1.193082 2.38487,2.232422 0.0725,1.5733246 -1.67296,3.31569 -3.302125,3.295923 -1.076237,-0.013049 -2.337001,-1.1930518 -2.384869,-2.2324219 -0.07248,-1.5733231 1.672971,-3.3156791 3.302124,-3.2959231 z m -87.00244,0.709518 c 0.715569,0.0093 1.553593,0.848866 1.585433,1.588017 0.0482,1.1189013 -1.112543,2.3575836 -2.195732,2.3435258 -0.715569,-0.0093 -1.553613,-0.8483309 -1.585433,-1.5875 -0.0482,-1.1189028 1.112543,-2.3580928 2.195732,-2.3440428 z m 100.0001,0 c 0.71557,0.0093 1.55359,0.848866 1.58543,1.588017 0.0482,1.1189013 -1.11254,2.3575836 -2.19573,2.3435258 -0.71557,-0.0093 -1.55361,-0.8483309 -1.58543,-1.5875 -0.0482,-1.1189028 1.11254,-2.3580928 2.19573,-2.3440428 z m -139.902058,0.182934 c 0.56526,0.0071 1.161639,0.09716 1.778704,0.280603 6.642411,1.9746223 16.4858281,11.58068787 18.6216019,18.1730514 1.4108946,4.3549456 -1.9273591,7.7758786 -6.3153769,6.4714396 -6.642409,-1.974628 -16.485829,-11.5812034 -18.621602,-18.1735678 -1.212498,-3.7425413 1.082308,-6.7949162 4.536673,-6.7515262 z m 100.000099,0 c 0.565259,0.0071 1.161637,0.09716 1.778701,0.280603 6.642412,1.9746223 16.485831,11.58068787 18.621603,18.1730514 1.410896,4.3549456 -1.92736,7.7758786 -6.315377,6.4714396 C 80.663889,11.262807 70.820468,1.6562326 68.684696,-4.9361328 67.4722,-8.6786741 69.767003,-11.731049 73.221371,-11.687659 Z M 6.4316488,-9.1927204 c 2.0297479,-0.0056 3.9960862,0.7421684 5.4244752,2.3419758 5.535354,6.19961777 7.077894,22.3541436 2.918168,30.5609256 -0.23286,0.459429 -0.499983,0.887934 -0.791683,1.289843 C 10.832092,29.340881 4.5348477,30.271368 1.1880412,26.522929 0.78220157,26.068384 0.40048021,25.55454 0.03824056,25.000024 -4.540187,17.991411 -5.584866,3.5670789 -1.730127,-4.0379965 c 1.67452437,-3.3036997 4.995369,-5.146032 8.1617758,-5.1547239 z m 100.0001012,0 c 2.02974,-0.0056 3.99608,0.7421684 5.42447,2.3419758 5.53536,6.19961777 7.0779,22.3541436 2.91817,30.5609256 -0.23286,0.459429 -0.49998,0.887934 -0.79168,1.289843 -3.15052,4.340857 -9.44776,5.271344 -12.79457,1.522905 -0.40584,-0.454545 -0.78756,-0.968389 -1.1498,-1.522905 -4.57843,-7.008613 -5.623108,-21.4329451 -1.76837,-29.0380205 1.674524,-3.3036997 4.99537,-5.146032 8.16178,-5.1547239 z M -8.2770141,-8.9415731 c 2.1517827,-6.879e-4 4.5981122,1.2879893 5.4280924,3.1408936 0.7161293,1.5987485 -0.2154409,4.221246 -1.7621665,4.96145424 -2.3413596,1.12051089 -6.1821658,-0.33681904 -7.2662228,-2.75693774 -0.71613,-1.5987482 0.214924,-4.2212479 1.761649,-4.9614542 0.5487568,-0.2626188 1.1799375,-0.383749 1.8386479,-0.3839559 z m 100.0000971,0 c 2.151782,-6.879e-4 4.598112,1.2879893 5.428094,3.1408936 0.716129,1.5987485 -0.215443,4.221246 -1.762168,4.96145424 -2.341358,1.12051089 -6.182166,-0.33681904 -7.266223,-2.75693774 -0.716129,-1.5987482 0.214924,-4.2212479 1.761649,-4.9614542 0.548757,-0.2626188 1.179939,-0.383749 1.838648,-0.3839559 z m -126.15509,3.8142376 c 0.968666,-2.911e-4 2.070147,0.560896 2.443779,1.3678752 0.322379,0.6962891 -0.09694,1.8387326 -0.793234,2.1611082 -1.054008,0.4880056 -2.783107,-0.1464295 -3.271118,-1.2004435 -0.322379,-0.6962912 0.09695,-1.8387316 0.793234,-2.1611084 0.247033,-0.114376 0.530807,-0.1673416 0.827339,-0.1674315 z m 100.000099,0 c 0.968663,-2.911e-4 2.070147,0.560896 2.443776,1.3678752 0.322382,0.6962891 -0.09694,1.8387326 -0.793231,2.1611082 -1.054008,0.4880056 -2.78311,-0.1464295 -3.271118,-1.2004435 -0.322382,-0.6962912 0.09695,-1.8387316 0.793231,-2.1611084 0.247034,-0.114376 0.53081,-0.1673416 0.827342,-0.1674315 z m -10.135817,2.3900349 c 8.137982,-0.00249 17.389022,4.7122118 20.527946,11.4918051 2.251872,4.8636655 0.194329,12.3142335 -3.924826,16.2455195 -0.835054,0.796969 -1.752862,1.452419 -2.73885,1.908929 -5.526117,2.558574 -13.260682,1.443038 -19.291845,-1.908929 h -5.3e-4 l -0.0041,-0.0026 v 5.29e-4 c -3.631301,-2.019041 -6.644852,-4.848611 -8.185542,-8.176248 -2.708367,-5.849654 0.814023,-15.4460809 6.663677,-18.1544472 0.490379,-0.2270438 0.999432,-0.4230396 1.52187,-0.5932454 v 5.159e-4 c 1.688788,-0.5502804 3.529407,-0.8112607 5.432227,-0.8118367 z M 22.7521,-0.63200277 c 3.397546,0.0072 12.06359,3.67890237 14.696776,6.57685957 3.573746,5.0415552 3.437255,14.9372582 -0.258381,18.7203042 -0.119309,0.12213 -0.251286,0.229004 -0.383956,0.334863 h -5.29e-4 c -1.871437,1.492724 -4.99442,1.381241 -7.431069,0 h -5.29e-4 C 28.449085,24.475345 27.6215,23.772727 27.003521,22.900928 25.264981,20.44834 24.404502,16.847335 24.404712,13.359908 20.980875,11.60251 17.975183,8.8491605 17.112134,6.1722331 c -0.24272,-0.7528793 -0.24342,-1.5421933 -0.05271,-2.3058025 0.572059,-2.2908176 2.868635,-4.3496747 5.535062,-4.49584956 0.0512,-0.001799 0.103684,-0.002684 0.157614,-0.002585 z m 100.0001,0 c 3.39754,0.0072 12.06359,3.67890237 14.69677,6.57685957 3.57375,5.0415552 3.43726,14.9372582 -0.25838,18.7203042 -0.11931,0.12213 -0.25128,0.229004 -0.38395,0.334863 h -5.3e-4 c -1.87144,1.492724 -4.99442,1.381241 -7.43107,0 h -5.3e-4 c -0.92534,-0.524679 -1.75293,-1.227297 -2.37091,-2.099096 -1.73854,-2.452588 -2.59902,-6.053593 -2.59881,-9.54102 -3.42384,-1.757398 -6.42953,-4.5107475 -7.29258,-7.1876749 -0.24272,-0.7528793 -0.24342,-1.5421933 -0.0527,-2.3058025 0.57206,-2.2908176 2.86865,-4.3496747 5.53506,-4.49584956 0.0512,-0.001799 0.10369,-0.002684 0.15762,-0.002585 z M 40.693123,2.4665161 c 0.367329,-0.008 0.715529,0.2382661 0.851628,0.7002157 0.347001,1.1777588 -0.13193,3.5674953 -0.905889,4.5206544 C 40.127574,8.3170453 39.297128,8.1507057 39.067899,7.3726765 38.7209,6.1949277 39.199828,3.8051714 39.973787,2.8520223 40.181488,2.5962226 40.441793,2.4719261 40.693123,2.4665161 Z m 100.000097,0 c 0.36733,-0.008 0.71553,0.2382661 0.85163,0.7002157 0.347,1.1777588 -0.13193,3.5674953 -0.90589,4.5206544 -0.51129,0.6296591 -1.34173,0.4633195 -1.57096,-0.3147097 -0.347,-1.1777488 0.13193,-3.5675051 0.90589,-4.5206542 0.20769,-0.2557997 0.468,-0.3800962 0.71933,-0.3855062 z M -20.74292,9.463505 c 0.04867,-1.5e-4 0.0968,0.00295 0.143661,0.010853 0.907887,0.1476497 1.760471,1.331261 1.612821,2.23914 -0.0975,0.599749 -0.879749,1.163098 -1.479496,1.065568 -0.907889,-0.14766 -1.760472,-1.331261 -1.612822,-2.23914 0.08988,-0.5528994 0.761577,-1.07469 1.335836,-1.076421 z m 100.000098,0 c 0.04867,-1.5e-4 0.0968,0.00295 0.143661,0.010853 0.907886,0.1476497 1.760472,1.331261 1.612821,2.23914 -0.0975,0.599749 -0.879748,1.163098 -1.479497,1.065568 -0.907889,-0.14766 -1.760472,-1.331261 -1.612821,-2.23914 0.08988,-0.5528994 0.761577,-1.07469 1.335836,-1.076421 z m -97.461752,3.91449 c 1.242835,-0.007 3.040493,0.618892 4.330485,1.644861 0.955268,0.759749 1.804413,1.726679 2.46755,2.727998 1.8982911,1.758409 1.7243641,5.014753 0.598413,7.24917 -0.0045,0.0089 -0.0084,0.01849 -0.01292,0.02739 -2.6882,4.902476 -10.297626,9.517868 -14.395504,8.731251 -0.169179,-0.03249 -0.331399,-0.07933 -0.487308,-0.139528 -2.33879,-0.903018 -3.153135,-4.796923 -1.488281,-7.833113 0.144391,-0.263324 0.307562,-0.525135 0.479041,-0.785999 1.783553,-2.713247 4.957137,-5.251301 8.059455,-6.72207 -1.069487,-1.811918 -1.492605,-3.637583 -0.802017,-4.476212 0.235858,-0.28643 0.686161,-0.420607 1.251086,-0.423748 z m 100.000099,0 c 1.242835,-0.007 3.040491,0.618892 4.330483,1.644861 0.955267,0.759749 1.804413,1.726679 2.467552,2.727998 1.89829,1.758409 1.724363,5.014753 0.598413,7.24917 -0.0045,0.0089 -0.0084,0.01849 -0.01291,0.02739 -2.688201,4.902476 -10.297625,9.517868 -14.395505,8.731251 -0.16918,-0.03249 -0.331399,-0.07933 -0.487307,-0.139528 -2.338792,-0.903018 -3.153135,-4.796923 -1.488281,-7.833113 0.144388,-0.263324 0.307562,-0.525135 0.479041,-0.785999 1.783554,-2.713247 4.957135,-5.251301 8.059454,-6.72207 -1.069485,-1.811918 -1.492604,-3.637583 -0.802018,-4.476212 0.235858,-0.28643 0.686163,-0.420607 1.251088,-0.423747 z m -88.5770231,0.124023 c 1.4499325,-10e-4 3.0983923,2.095246 3.6576577,5.110283 0.3447888,1.858798 0.1165214,4.552755 -0.4185791,6.387723 h 5.292e-4 c -0.2138238,0.733317 -0.4718582,1.342273 -0.769462,1.686203 -1.149775,1.328777 -2.8335492,0.4235 -3.9465293,-1.686203 -0.4142065,-0.785149 -0.7516939,-1.73176 -0.9498126,-2.799829 -0.4825476,-2.601487 0.1452954,-6.86895 1.1875243,-8.073409 0.3697666,-0.427329 0.7948266,-0.624428 1.2386842,-0.624768 z m 100.0000961,0 c 1.449935,-10e-4 3.098395,2.095246 3.657658,5.110283 0.344789,1.858798 0.116523,4.552755 -0.418579,6.387723 h 5.3e-4 c -0.213826,0.733317 -0.471858,1.342273 -0.769464,1.686203 -1.149774,1.328777 -2.833548,0.4235 -3.946528,-1.686203 -0.414208,-0.785149 -0.751694,-1.73176 -0.949814,-2.799829 -0.482548,-2.601487 0.145295,-6.86895 1.187524,-8.073409 0.369768,-0.427329 0.794826,-0.624428 1.238684,-0.624768 z m -114.76612,1.612822 c 0.04867,-1.4e-4 0.09629,0.003 0.143144,0.01085 0.907877,0.14766 1.760471,1.33126 1.612821,2.23914 -0.0975,0.599759 -0.879222,1.163107 -1.478979,1.065568 -0.907879,-0.14765 -1.760472,-1.331261 -1.612822,-2.23914 0.08988,-0.5529 0.761577,-1.07468 1.335836,-1.07642 z m 100.000097,0 c 0.04867,-1.4e-4 0.09629,0.003 0.143145,0.01085 0.907875,0.14766 1.760471,1.33126 1.612821,2.23914 -0.0975,0.599759 -0.879221,1.163107 -1.478979,1.065568 -0.90788,-0.14765 -1.760471,-1.331261 -1.612823,-2.23914 0.08988,-0.5529 0.761577,-1.07468 1.335836,-1.07642 z m -58.301867,0.519865 c 1.988748,-10e-4 4.249649,2.095752 5.016748,5.110799 0.30946,1.216339 0.2764,2.793022 0.01757,4.25452 h -5.29e-4 c -0.294809,1.664004 -0.884815,3.177638 -1.645894,3.81889 -2.038518,1.717596 -5.305169,-0.288597 -6.514848,-3.81889 h -5.29e-4 c -0.0744,-0.217059 -0.142484,-0.438546 -0.200504,-0.666626 -0.66188,-2.601477 0.199302,-6.869467 1.628841,-8.073925 0.507179,-0.42734 1.090312,-0.624438 1.699121,-0.624768 z m 100.000102,0 c 1.98874,-10e-4 4.24964,2.095752 5.01674,5.110799 0.30946,1.216339 0.2764,2.793022 0.0176,4.25452 h -5.3e-4 c -0.29481,1.664004 -0.88482,3.177638 -1.6459,3.81889 -2.03852,1.717596 -5.30517,-0.288597 -6.51485,-3.81889 h -5.3e-4 c -0.0744,-0.217059 -0.14249,-0.438546 -0.20051,-0.666626 -0.66188,-2.601477 0.19931,-6.869467 1.62884,-8.073925 0.50718,-0.42734 1.09032,-0.624438 1.69913,-0.624768 z m -78.977095,2.589506 c 0.038,-1.1e-4 0.0756,0.0033 0.112138,0.0093 0.708499,0.11523 1.37354,1.038681 1.258319,1.747181 -0.0761,0.468039 -0.685893,0.907593 -1.153933,0.831473 -0.708509,-0.11523 -1.374068,-1.039197 -1.258837,-1.747697 0.0702,-0.431469 0.594164,-0.838392 1.042313,-0.839742 z m 100.000095,0 c 0.038,-1.1e-4 0.0756,0.0033 0.11214,0.0093 0.7085,0.11523 1.37354,1.038681 1.25832,1.747181 -0.0761,0.468039 -0.68589,0.907593 -1.15393,0.831473 -0.70851,-0.11523 -1.37407,-1.039197 -1.25884,-1.747697 0.0702,-0.431469 0.59416,-0.838392 1.04231,-0.839742 z m -99.225467,3.250447 c 0.744181,0.0132 1.491856,0.196326 2.137855,0.575676 1.091208,0.640809 2.079371,1.709782 2.863392,2.94969 0.309708,0.489803 0.590788,1.003442 0.828889,1.532207 0.754669,0.03856 1.50744,0.153737 2.221569,0.328145 1.421818,0.347178 2.679504,0.946033 3.416848,1.761651 0.311507,0.344577 0.501944,0.767297 0.583943,1.222145 0.246108,1.364517 -0.486529,3.020645 -1.878957,3.741891 -0.466095,0.229367 -1.229159,0.401717 -2.121834,0.520898 -2.417746,0.322871 -5.853017,0.22075 -7.417633,-0.459401 -2.666389,-1.565791 -4.732155,-5.66383 -4.627626,-8.647536 0.0181,-0.517959 0.09391,-1.006188 0.251663,-1.437638 0.484371,-1.324669 2.104713,-2.116718 3.741891,-2.087728 z m -51.2082429,4.893758 c 0.6443114,-0.0033 1.3943166,0.68804 1.4614096,1.378211 0.1065869,1.096137 -0.8994571,2.456129 -1.9032432,2.572453 -0.6630745,0.07694 -1.4850825,-0.64893 -1.5554605,-1.373044 -0.106587,-1.096135 0.898939,-2.456127 1.9027262,-2.572452 0.03108,-0.0036 0.062878,-0.005 0.094568,-0.0052 z m 100.0000979,0 c 0.644311,-0.0033 1.394315,0.68804 1.461408,1.378211 0.106587,1.096137 -0.899457,2.456129 -1.903241,2.572453 -0.663075,0.07694 -1.485082,-0.64893 -1.555461,-1.373044 -0.106588,-1.096135 0.89894,-2.456127 1.902727,-2.572452 0.03108,-0.0036 0.06288,-0.005 0.09457,-0.0052 z m -61.117199,0.04651 c 2.876047,-0.01142 6.6847,0.943087 7.971089,2.110982 0.988848,0.897765 -0.0384,2.20387 -1.94355,2.471168 -2.883858,0.404622 -7.796096,-0.665162 -9.292974,-2.024165 -0.988849,-0.897766 0.0385,-2.204387 1.94355,-2.471685 0.40554,-0.0569 0.851254,-0.08443 1.321885,-0.0863 z m 100.000101,0 c 2.87604,-0.01142 6.6847,0.943087 7.97109,2.110982 0.98884,0.897765 -0.0384,2.20387 -1.94356,2.471168 -2.88385,0.404622 -7.79609,-0.665162 -9.29297,-2.024165 -0.98885,-0.897766 0.0385,-2.204387 1.94355,-2.471685 0.40554,-0.0569 0.85126,-0.08443 1.32189,-0.0863 z m -131.5408124,0.0083 c 0.02289,-4.23e-4 0.045503,6.7e-5 0.068213,0.001 1.12593885,0.08162 1.61263498,1.667514 2.80706378,1.286225 1.19862882,0.05317 2.51126242,1.353728 2.48305252,2.460832 C 3.265157,32.678516 0.37312367,33.925134 -0.33848064,33.15353 -1.2240487,33.09951 -2.193834,31.778152 -2.172994,30.653424 c 0.05343,-1.707626 -0.6726926,-0.91471 -1.254187,-2.881479 0.016481,-0.646436 0.7997383,-1.3355 1.5094686,-1.348754 z m 100.0000984,0 c 0.02289,-4.23e-4 0.0455,6.7e-5 0.06821,0.001 1.12594,0.08162 1.612635,1.667514 2.807064,1.286225 1.19863,0.05317 2.51126,1.353728 2.48305,2.460832 -0.17546,2.507234 -3.06749,3.753852 -3.779094,2.982248 -0.885569,-0.05402 -1.855354,-1.375378 -1.834513,-2.500106 0.05343,-1.707626 -0.672695,-0.91471 -1.254188,-2.881479 0.01648,-0.646436 0.799737,-1.3355 1.509469,-1.348754 z m -127.802018,0.82734 c 0.401973,-0.0088 0.907994,0.373068 0.967382,0.735356 0.0913,0.557128 -0.493037,1.218724 -1.105876,1.251604 -0.40485,0.0217 -0.92669,-0.366284 -0.98702,-0.734322 -0.0913,-0.557131 0.493554,-1.218724 1.106392,-1.251604 0.0063,-2.64e-4 0.01273,-0.0011 0.01913,-0.0011 z m 100.000096,0 c 0.401976,-0.0088 0.907997,0.373068 0.967383,0.735356 0.0913,0.557128 -0.493038,1.218724 -1.105874,1.251604 -0.404852,0.0217 -0.92669,-0.366284 -0.98702,-0.734322 -0.0913,-0.557131 0.493551,-1.218724 1.106392,-1.251604 0.0063,-2.64e-4 0.01275,-0.0011 0.01913,-0.0011 z m -115.257046,0.278535 c 0.561086,-2.65e-4 1.180214,0.274706 1.432986,0.711586 0.237498,0.410438 0.04356,1.137105 -0.366903,1.374592 -0.621297,0.359508 -1.720995,0.06583 -2.080493,-0.555521 -0.23749,-0.41043 -0.04356,-1.137103 0.366903,-1.374593 0.184447,-0.10673 0.410602,-0.155932 0.647507,-0.156064 z m 100.000097,0 c 0.561086,-2.65e-4 1.180216,0.274706 1.432988,0.711586 0.237498,0.410438 0.04356,1.137105 -0.366903,1.374592 -0.6213,0.359508 -1.720995,0.06583 -2.080495,-0.555521 -0.237488,-0.41043 -0.04356,-1.137103 0.366903,-1.374593 0.184449,-0.10673 0.410604,-0.155932 0.647507,-0.156064 z M -5.5996581,27.80347 c 0.018431,-2.65e-4 0.037014,-2.65e-4 0.055294,5.29e-4 0.8855721,0.03836 1.8548416,0.976921 1.8339967,1.775603 -0.013689,0.527595 -0.6851973,1.090932 -1.2702069,1.065567 -0.8855702,-0.03836 -1.8548406,-0.976921 -1.8339964,-1.775603 0.013261,-0.511098 0.6436534,-1.055606 1.2149129,-1.066086 z m 100.0000971,0 c 0.01844,-2.65e-4 0.03701,-2.65e-4 0.0553,5.29e-4 0.885571,0.03836 1.85484,0.976921 1.833996,1.775603 -0.01368,0.527595 -0.685196,1.090932 -1.270206,1.065567 -0.885571,-0.03836 -1.85484,-0.976921 -1.833996,-1.775603 0.01326,-0.511098 0.643652,-1.055606 1.214911,-1.066086 z m -136.48159,0.320913 c 0.458203,-0.0021 0.992016,0.448699 1.039728,0.898136 0.0758,0.713798 -0.639559,1.599081 -1.353405,1.674831 -0.471548,0.0501 -1.056859,-0.422463 -1.106908,-0.894001 -0.0758,-0.713798 0.640072,-1.599599 1.353921,-1.675349 0.02209,-0.0024 0.04413,-0.0035 0.06666,-0.0036 z m 100.000096,0 c 0.458206,-0.0021 0.992016,0.448699 1.039731,0.898136 0.0758,0.713798 -0.639559,1.599081 -1.353407,1.674831 -0.471549,0.0501 -1.05686,-0.422463 -1.106909,-0.894001 -0.0758,-0.713798 0.640075,-1.599599 1.353924,-1.675349 0.02209,-0.0024 0.04413,-0.0035 0.06666,-0.0036 z m -91.988701,1.053682 c 0.850231,-0.0035 1.629244,0.07107 2.286683,0.236159 2.316303,0.581639 2.904625,3.004436 1.11311,4.5837 -2.71191,2.390635 -9.684586,4.084407 -13.190926,3.20394 -2.316311,-0.581639 -2.904625,-3.00495 -1.11311,-4.584216 2.203436,-1.942391 7.219918,-3.424351 10.904243,-3.439583 z m 100.000099,0 c 0.850228,-0.0035 1.629244,0.07107 2.286683,0.236159 2.316303,0.581639 2.904622,3.004436 1.11311,4.5837 -2.711913,2.390635 -9.684589,4.084407 -13.190926,3.20394 -2.316314,-0.581639 -2.904628,-3.00495 -1.11311,-4.584216 2.203434,-1.942391 7.219915,-3.424351 10.904243,-3.439583 z m -50.838241,0.349332 c 6.503484,0.04422 13.677653,1.347245 17.56172,3.588927 4.105336,2.369394 3.643326,6.90072 -0.87385,8.572603 C 24.942059,44.219754 10.306244,43.035969 4.09174,39.449272 -0.01360099,37.079883 0.44790614,32.548034 4.9650716,30.876153 7.5292892,29.92709 11.190016,29.500864 15.092102,29.527397 Z m 100.000098,0 c 6.50348,0.04422 13.67765,1.347245 17.56172,3.588927 4.10533,2.369394 3.64333,6.90072 -0.87385,8.572603 -6.83791,2.530827 -21.47373,1.347042 -27.68823,-2.239655 -4.105343,-2.369389 -3.64384,-6.901238 0.87333,-8.573119 2.56422,-0.949063 6.22494,-1.375289 10.12703,-1.348756 z M -8.0093301,30.785202 c 0.2863466,-1.4e-4 0.5675016,0.0078 0.8428426,0.02429 5.82053,0.34794 9.1623658,6.487091 6.32209461,11.613761 -2.09159391,3.775313 -6.64514691,7.633414 -11.78429411,10.539926 0.408658,4.873979 -1.01605,10.161357 -4.204911,13.251905 -0.896856,0.869204 -2.059517,1.527971 -3.351733,1.974556 -3.876656,1.339749 -8.922262,0.769477 -11.472684,-1.763715 -3.036234,-3.171336 -5.315304,-15.153294 -3.319695,-20.2706 4.165134,-7.51804 18.091611,-15.36583 26.9683799,-15.370119 z m 100.0000971,0 c 0.286348,-1.4e-4 0.567502,0.0078 0.842844,0.02429 5.820529,0.34794 9.162369,6.487091 6.322094,11.613761 -2.091595,3.775313 -6.645148,7.633414 -11.784293,10.539926 0.408657,4.873979 -1.01605,10.161357 -4.204912,13.251905 -0.896855,0.869204 -2.059516,1.527971 -3.351733,1.974556 -3.876657,1.339749 -8.922264,0.769477 -11.472686,-1.763715 -3.036231,-3.171336 -5.315304,-15.153294 -3.319692,-20.2706 4.165134,-7.51804 18.09161,-15.36583 26.968378,-15.370119 z m -52.278978,1.81746 c 0.0678,1.85e-4 0.135067,0.0038 0.201538,0.01138 0.02249,0.0024 0.04539,0.0064 0.06769,0.0098 0.878911,0.134745 1.738294,1.326886 1.754933,2.356448 0.0345,0.0031 0.0688,0.0061 0.102836,0.01138 0.94406,0.144733 1.866979,1.510589 1.745631,2.583305 -0.183711,1.623851 -1.992945,3.198735 -3.422015,2.979666 -0.879078,-0.134771 -1.738612,-1.327777 -1.754931,-2.35748 -0.0344,-0.0032 -0.0683,-0.0062 -0.10232,-0.01138 -0.94406,-0.144733 -1.86699,-1.509525 -1.745628,-2.582273 0.172347,-1.523553 1.774672,-3.004629 3.152262,-3.000848 z m 100.000101,0 c 0.0678,1.85e-4 0.13506,0.0038 0.20153,0.01138 0.0225,0.0024 0.0454,0.0064 0.0677,0.0098 0.87891,0.134745 1.73829,1.326886 1.75493,2.356448 0.0345,0.0031 0.0688,0.0061 0.10284,0.01138 0.94406,0.144733 1.86698,1.510589 1.74563,2.583305 -0.18371,1.623851 -1.99295,3.198735 -3.42202,2.979666 -0.87908,-0.134771 -1.73861,-1.327777 -1.75493,-2.35748 -0.0344,-0.0032 -0.0683,-0.0062 -0.10232,-0.01138 -0.94406,-0.144733 -1.86699,-1.509525 -1.74563,-2.582273 0.17235,-1.523553 1.77468,-3.004629 3.15227,-3.000848 z m -170.901717,3.518646 c 0.4264,-0.0047 0.802214,0.03003 1.107943,0.109556 1.292585,0.336196 0.98924,1.970228 -0.574125,3.091283 -2.36655,1.697001 -7.214354,3.029183 -9.171016,2.52026 -1.29259,-0.336196 -0.988722,-1.970228 0.57464,-3.091283 1.996771,-1.431843 5.760001,-2.604172 8.062558,-2.629816 z m 100.000097,0 c 0.426402,-0.0047 0.802214,0.03003 1.107942,0.109556 1.292588,0.336196 0.989243,1.970228 -0.574124,3.091283 -2.366548,1.697001 -7.214354,3.029183 -9.171017,2.52026 -1.292588,-0.336196 -0.988721,-1.970228 0.574643,-3.091283 1.996768,-1.431843 5.759998,-2.604172 8.062556,-2.629816 z m -19.118729,3.080433 c 0.10332,0.0013 0.205378,0.0114 0.308507,0.01447 3.113987,0.09277 6.127507,1.003159 8.179348,2.803445 7.33493,6.435691 8.343061,21.87725 1.907376,29.212172 -2.252628,2.567393 -6.175285,3.947811 -10.086724,4.058666 -3.470767,0.09832 -6.93275,-0.80002 -9.210807,-2.798796 -7.334933,-6.435686 -8.343059,-21.876708 -1.907376,-29.211651 2.391447,-2.72559 6.665449,-4.128858 10.809676,-4.078306 z M 3.3827392,40.222868 c 0.3398197,-7.93e-4 0.6653588,0.06182 0.9441286,0.198954 0.7366291,0.362373 1.1588572,1.600364 0.7989176,2.341975 C 4.580926,43.886414 2.719632,44.529841 1.6045532,43.981296 0.86792395,43.618923 0.44570594,42.381445 0.80563559,41.639837 1.2142852,40.797872 2.3632703,40.22512 3.3827392,40.222868 Z m 100.0001008,0 c 0.33982,-7.93e-4 0.66536,0.06182 0.94413,0.198954 0.73662,0.362373 1.15885,1.600364 0.79891,2.341975 -0.54486,1.122617 -2.40615,1.766044 -3.52123,1.217499 -0.73663,-0.362373 -1.15885,-1.599851 -0.79892,-2.341459 0.40865,-0.841965 1.55764,-1.414717 2.57711,-1.416969 z m -67.126655,0.105421 c 0.631018,0.01286 1.335019,0.717476 1.400947,1.40198 0.0021,0.02278 0.0031,0.04498 0.0041,0.0677 0.006,1.128879 -1.538028,1.737143 -1.06557,2.898531 0.0396,1.19915 -1.15539,2.60803 -2.261359,2.665471 -2.513298,0.01884 -3.979733,-2.76815 -3.265435,-3.537251 -0.0146,-0.887095 1.227794,-1.955951 2.350762,-2.0221 1.706658,-0.07871 0.860119,-0.74154 2.776056,-1.473295 0.02019,-0.0011 0.04006,-0.0013 0.06046,-0.0011 z m 100.000095,0 c 0.63102,0.01286 1.33502,0.717476 1.40095,1.40198 0.002,0.02278 0.003,0.04498 0.004,0.0677 0.006,1.128879 -1.53802,1.737143 -1.06556,2.898531 0.0396,1.19915 -1.1554,2.60803 -2.26136,2.665471 -2.5133,0.01884 -3.97974,-2.76815 -3.26544,-3.537251 -0.0146,-0.887095 1.22779,-1.955951 2.35076,-2.0221 1.70666,-0.07871 0.86012,-0.74154 2.77606,-1.473295 0.0202,-0.0011 0.0401,-0.0013 0.0605,-0.0011 z M 27.746627,43.437143 c 0.768228,0.0021 1.614297,0.383244 1.958538,0.986502 0.323427,0.566777 0.055,1.567812 -0.507981,1.893424 -0.8522,0.492898 -2.356758,0.08334 -2.846338,-0.774628 -0.323429,-0.566777 -0.055,-1.567297 0.507979,-1.892909 0.252989,-0.14633 0.563433,-0.213233 0.887802,-0.212389 z m 100.000093,0 c 0.76823,0.0021 1.6143,0.383244 1.95854,0.986502 0.32343,0.566777 0.055,1.567812 -0.50798,1.893424 -0.8522,0.492898 -2.35676,0.08334 -2.84634,-0.774628 -0.32343,-0.566777 -0.055,-1.567297 0.50798,-1.892909 0.25299,-0.14633 0.56343,-0.213233 0.8878,-0.212389 z m -104.220507,0.08888 c 0.781479,-0.01527 1.657806,0.36984 2.009696,0.986504 0.32342,0.566777 0.055,1.567294 -0.507979,1.892906 -0.852209,0.492897 -2.356749,0.08386 -2.846338,-0.774113 -0.32342,-0.566777 -0.055,-1.567809 0.507979,-1.893424 0.23968,-0.138626 0.530852,-0.205894 0.836642,-0.211873 z m 100.000097,0 c 0.78148,-0.01527 1.65781,0.36984 2.0097,0.986504 0.32342,0.566777 0.055,1.567294 -0.50798,1.892906 -0.85221,0.492897 -2.35675,0.08386 -2.84634,-0.774113 -0.32342,-0.566777 -0.055,-1.567809 0.50798,-1.893424 0.23968,-0.138626 0.53085,-0.205894 0.83664,-0.211873 z M 11.421008,43.800427 c 2.854897,-0.0063 5.588785,0.519623 7.930782,1.671732 6.188564,3.044368 9.737192,13.444361 6.713286,19.674769 C 21.48758,74.578284 5.8498721,79.98627 -3.5181315,75.377828 -9.7066933,72.333435 -13.254817,61.933471 -10.2309,55.70306 -6.7977824,48.629546 2.8562969,43.819342 11.421008,43.800427 Z m 100.000102,0 c 2.85489,-0.0063 5.58878,0.519623 7.93078,1.671732 6.18856,3.044368 9.73719,13.444361 6.71328,19.674769 -4.57749,9.431356 -20.2152,14.839342 -29.583204,10.2309 C 90.293404,72.333435 86.745281,61.933471 89.769199,55.70306 93.202316,48.629546 102.85639,43.819342 111.42111,43.800427 Z m -81.967093,3.480408 c 1.781146,0.0041 3.742688,0.790885 4.540806,2.034501 0.749861,1.168413 0.127037,3.23084 -1.178221,3.902088 -1.975837,1.016108 -5.46448,0.172413 -6.599598,-1.596284 -0.749859,-1.168416 -0.127036,-3.231359 1.178224,-3.902607 0.586568,-0.301657 1.30674,-0.439433 2.058789,-0.437698 z m 100.000093,0 c 1.78115,0.0041 3.74269,0.790885 4.54081,2.034501 0.74986,1.168413 0.12704,3.23084 -1.17822,3.902088 -1.97584,1.016108 -5.46448,0.172413 -6.5996,-1.596284 -0.74986,-1.168416 -0.12703,-3.231359 1.17822,-3.902607 0.58657,-0.301657 1.30674,-0.439433 2.05879,-0.437698 z m -99.292645,7.746296 c 1.201299,-0.0048 2.571925,0.272738 3.295923,0.749308 0.7288,0.47974 0.64276,1.381586 -0.16278,1.706357 -1.219398,0.491627 -3.824118,0.22856 -4.927348,-0.497645 -0.728798,-0.479734 -0.642758,-1.38158 0.162782,-1.706356 0.419169,-0.168994 1.002176,-0.249174 1.631423,-0.251664 z m 100.000095,0 c 1.2013,-0.0048 2.57193,0.272738 3.29593,0.749308 0.7288,0.47974 0.64276,1.381586 -0.16278,1.706357 -1.2194,0.491627 -3.82412,0.22856 -4.92735,-0.497645 -0.7288,-0.479734 -0.64276,-1.38158 0.16278,-1.706356 0.41917,-0.168994 1.00217,-0.249174 1.63142,-0.251664 z m -98.883884,3.923277 c 0.935501,-0.0076 1.839963,0.229184 2.397271,0.723468 1.799709,1.596274 1.644854,5.354767 -0.293005,7.110677 -1.280168,1.159965 -4.049035,1.278229 -5.237922,0.223761 -1.79973,-1.596268 -1.644854,-5.354767 0.293005,-7.110677 0.680098,-0.616236 1.780413,-0.938644 2.840651,-0.947229 z m 100.000104,0 c 0.93549,-0.0076 1.83996,0.229184 2.39726,0.723468 1.79971,1.596274 1.64486,5.354767 -0.293,7.110677 -1.28017,1.159965 -4.04903,1.278229 -5.23792,0.223761 -1.79973,-1.596268 -1.64486,-5.354767 0.293,-7.110677 0.6801,-0.616236 1.78042,-0.938644 2.84066,-0.947229 z m -144.859897,5.004861 c 0.204073,-0.003 0.423501,0.06269 0.63562,0.20929 1.081591,0.747514 2.295631,3.066534 2.296501,4.387329 5.82e-4,0.872524 -0.800131,1.297384 -1.514636,0.803569 -1.081594,-0.747517 -2.295114,-3.06705 -2.295984,-4.387845 -3.97e-4,-0.613495 0.39517,-1.005276 0.878499,-1.012343 z m 100.000098,0 c 0.204073,-0.003 0.4235,0.06269 0.635619,0.20929 1.081593,0.747514 2.295631,3.066534 2.296501,4.387329 5.29e-4,0.872524 -0.800129,1.297384 -1.514636,0.803569 -1.081593,-0.747517 -2.295112,-3.06705 -2.295983,-4.387845 -5.29e-4,-0.613495 0.395169,-1.005276 0.878499,-1.012343 z m -54.948585,4.048849 c 2.923918,0.01069 5.086353,1.527149 4.505153,3.635955 -1.126159,4.086053 -2.931996,10.381612 -9.122442,12.133625 -4.089455,1.157388 -9.472098,-0.696902 -8.728149,-3.396176 1.126149,-4.086056 4.563412,-10.256044 10.753866,-12.008051 0.894569,-0.25318 1.772875,-0.36835 2.591572,-0.365353 z m 100.000094,0 c 2.92392,0.01069 5.08636,1.527149 4.50516,3.635955 -1.12616,4.086053 -2.932,10.381612 -9.12244,12.133625 -4.08946,1.157388 -9.4721,-0.696902 -8.72815,-3.396176 1.12614,-4.086056 4.56341,-10.256044 10.75386,-12.008051 0.89457,-0.25318 1.77288,-0.36835 2.59157,-0.365353 z m -167.013057,1.123445 c 0.266875,-0.0034 0.524079,0.04184 0.746726,0.145211 1.348153,0.625864 2.18531,2.803544 1.583364,4.119645 -0.01651,0.03611 -0.03529,0.07162 -0.05529,0.106455 0.176297,2.196293 -1.933395,4.882444 -4.039031,5.114414 -1.405237,0.155004 -3.148323,-1.307364 -3.297473,-2.766237 -0.184751,-1.806218 1.207902,-3.96743 2.885096,-4.822962 0.02027,-0.279911 0.08189,-0.546058 0.190685,-0.783932 0.298132,-0.652071 1.185304,-1.102505 1.985925,-1.112594 z m 100.000099,0 c 0.266872,-0.0034 0.524079,0.04184 0.746723,0.145211 1.348153,0.625864 2.185313,2.803544 1.583365,4.119645 -0.01651,0.03611 -0.03529,0.07162 -0.05529,0.106455 0.176297,2.196293 -1.933395,4.882444 -4.039031,5.114414 -1.405237,0.155004 -3.148322,-1.307364 -3.297473,-2.766237 -0.184748,-1.806218 1.207902,-3.96743 2.885096,-4.822962 0.02027,-0.279911 0.08189,-0.546058 0.190685,-0.783932 0.298133,-0.652071 1.185307,-1.102505 1.985928,-1.112594 z m -80.247299,0.04496 c 0.483467,0.0011 0.927411,0.02975 1.321366,0.08992 6.3612725,1.782593 12.918636,10.134515 12.4049275,15.800067 -0.3393556,3.742698 -5.4322571,6.619121 -9.6345545,5.441529 -3.094596,-0.867185 -6.23537,-3.28922 -8.586039,-6.200137 -4.023163,0.856782 -8.370808,0.598519 -10.890808,-1.050065 -0.70874,-0.463661 -1.241698,-1.122019 -1.598351,-1.888776 -1.069959,-2.300263 -0.554003,-5.577525 1.558044,-7.509102 2.39491,-2.101197 10.751903,-4.6935 15.425415,-4.683436 z m 100.000096,0 c 0.483468,0.0011 0.927412,0.02975 1.321369,0.08992 6.361271,1.782593 12.918636,10.134515 12.404926,15.800067 -0.339355,3.742698 -5.432258,6.619121 -9.634553,5.441529 -3.094599,-0.867185 -6.235372,-3.28922 -8.586039,-6.200137 -4.023164,0.856782 -8.370808,0.598519 -10.890808,-1.050065 -0.70874,-0.463661 -1.241701,-1.122019 -1.598354,-1.888776 -1.069959,-2.300263 -0.554003,-5.577525 1.558044,-7.509102 2.394911,-2.101197 10.751905,-4.6935 15.425415,-4.683436 z m -66.050747,4.486032 c 0.290439,-7.94e-4 0.580997,0.08843 0.760677,0.2682 0.543979,0.544351 0.547734,1.768991 0.0072,2.316655 -0.357189,0.361791 -1.160444,0.364143 -1.519804,0.0047 -0.543989,-0.544348 -0.547734,-1.768988 -0.0072,-2.316654 0.1786,-0.180896 0.468687,-0.271958 0.759127,-0.272852 z m 100.000098,0 c 0.29044,-7.94e-4 0.581,0.08843 0.76068,0.2682 0.54398,0.544351 0.54721,1.768991 0.007,2.316655 -0.35719,0.361791 -1.16044,0.364143 -1.5198,0.0047 -0.54399,-0.544348 -0.54722,-1.768988 -0.007,-2.316654 0.1786,-0.180896 0.46869,-0.271958 0.75913,-0.272852 z m -102.277479,1.23765 c 0.15392,5.29e-4 0.302256,0.02447 0.436666,0.07596 0.47356,0.181391 0.802354,0.919536 0.622184,1.396296 -0.272739,0.721702 -1.382237,1.223368 -2.099096,0.948778 -0.47356,-0.181391 -0.802364,-0.919536 -0.622185,-1.396296 0.2216,-0.586386 0.995432,-1.027293 1.662431,-1.024742 z m 100.000099,0 c 0.15392,5.29e-4 0.30225,0.02447 0.43666,0.07596 0.47356,0.181391 0.80236,0.919536 0.62219,1.396296 -0.27274,0.721702 -1.38224,1.223368 -2.0991,0.948778 -0.47356,-0.181391 -0.80236,-0.919536 -0.62218,-1.396296 0.2216,-0.586386 0.99543,-1.027293 1.66243,-1.024742 z m -71.837994,1.02009 c 1.92322,7.94e-4 3.942154,0.164256 5.956742,0.471289 6.030042,0.918962 12.022347,3.127076 15.302942,6.13451 4.022468,3.68753 2.848996,10.08811 -2.220018,12.108821 -3.354478,1.337236 -8.191672,1.541343 -13.082924,0.88987 -0.551868,-0.0735 -1.104532,-0.150368 -1.655712,-0.245464 -2.561648,3.756697 -6.697152,6.729219 -10.825178,7.075539 -1.161,0.0974 -2.391791,-0.11364 -3.592029,-0.55449 -3.600696,-1.32256 -6.929837,-4.713096 -7.296195,-8.04602 -0.344891,-4.079997 5.02729,-14.068232 9.477457,-16.580901 2.158106,-0.860306 4.929788,-1.25459 7.934915,-1.253154 z m -46.3553096,0.832509 c 0.5995224,0.0016 1.2594294,0.299723 1.52807213,0.770496 0.25239673,0.442306 0.0429693,1.222809 -0.39635823,1.476912 -0.6650503,0.384651 -1.8389855,0.06545 -2.2210531,-0.604097 -0.2523988,-0.442309 -0.042989,-1.223327 0.3963582,-1.47743 0.1974369,-0.114195 0.4398513,-0.166537 0.692981,-0.165881 z m 100.0000966,0 c 0.599522,0.0016 1.25943,0.299723 1.528072,0.770496 0.252399,0.442306 0.04297,1.222809 -0.396356,1.476912 -0.665052,0.384651 -1.838987,0.06545 -2.221053,-0.604097 -0.252399,-0.442309 -0.04299,-1.223327 0.396356,-1.47743 0.197438,-0.114195 0.439852,-0.166537 0.692981,-0.165881 z m -84.315266,0.557588 c 0.23607,-0.0021 0.464109,0.01315 0.682129,0.04703 0.49053,0.07619 0.933838,0.299776 1.308447,0.623734 1.123849,0.971865 1.632482,2.851738 0.964283,4.398698 -0.8596,1.882982 -5.463026,5.848644 -7.8667036,6.525184 -3.8329564,0.589888 -9.34422721,-2.290064 -10.4262371,-5.448248 -0.7147522,-2.086324 1.32298035,-4.862708 3.8550618,-5.252391 1.8646283,-0.286965 4.1264782,0.24716 6.082316,1.235064 1.7052785,-1.256022 3.7482059,-2.115333 5.4007039,-2.129068 z m 100.000093,0 c 0.23607,-0.0021 0.46411,0.01315 0.68213,0.04703 0.49053,0.07619 0.93384,0.299776 1.30845,0.623734 1.12385,0.971865 1.63248,2.851738 0.96428,4.398698 -0.8596,1.882982 -5.46302,5.848644 -7.8667,6.525184 -3.83296,0.589888 -9.344226,-2.290064 -10.426237,-5.448248 -0.714751,-2.086324 1.32298,-4.862708 3.855057,-5.252391 1.86463,-0.286965 4.12648,0.24716 6.08232,1.235064 1.70528,-1.256022 3.74821,-2.115333 5.4007,-2.129068 z m -95.123905,6.002735 c 0.54334,-0.0021 1.085834,0.07988 1.585433,0.26045 1.942758,0.743059 5.839035,4.705758 6.390825,6.771161 0.35987,3.292216 -3.087973,8.016052 -6.5226,8.936406 -2.268927,0.607988 -5.079258,-1.149485 -5.316988,-3.324345 -0.17506,-1.601578 0.551127,-3.541855 1.738395,-5.218287 -1.390728,-1.677008 -2.199971,-3.730955 -1.790071,-5.227587 0.11528,-0.420923 0.383766,-0.800642 0.754476,-1.121378 0.764599,-0.661517 1.965201,-1.072065 3.16053,-1.07642 z m 100.000095,0 c 0.54334,-0.0021 1.08584,0.07988 1.58544,0.26045 1.94275,0.743059 5.83903,4.705758 6.39082,6.771161 0.35987,3.292216 -3.08797,8.016052 -6.5226,8.936406 -2.26893,0.607988 -5.07926,-1.149485 -5.31699,-3.324345 -0.17506,-1.601578 0.55113,-3.541855 1.7384,-5.218287 -1.39073,-1.677008 -2.19997,-3.730955 -1.79007,-5.227587 0.11528,-0.420923 0.38376,-0.800642 0.75447,-1.121378 0.7646,-0.661517 1.9652,-1.072065 3.16053,-1.07642 z m -92.083265,1.594217 c 0.599529,0.0016 1.259948,0.299207 1.52859,0.76998 0.252399,0.442307 0.043,1.223325 -0.396359,1.477428 -0.665049,0.384652 -1.839501,0.06545 -2.22157,-0.604096 -0.25239,-0.442307 -0.0425,-1.223328 0.396875,-1.477431 0.197439,-0.114194 0.439334,-0.166537 0.692464,-0.165881 z m 100.000095,0 c 0.59953,0.0016 1.25995,0.299207 1.52859,0.76998 0.2524,0.442307 0.043,1.223325 -0.39636,1.477428 -0.66505,0.384652 -1.8395,0.06545 -2.22157,-0.604096 -0.25239,-0.442307 -0.0425,-1.223328 0.39688,-1.477431 0.19744,-0.114194 0.43933,-0.166537 0.69246,-0.165881 z m -146.936248,1.016477 c 0.01417,-2.65e-4 0.02874,-1.7e-4 0.04289,0 0.556858,0.0067 1.202066,0.570367 1.309998,1.110009 0.02163,-7.94e-4 0.04303,-0.0019 0.0646,-0.0016 0.598137,0.0072 1.298891,0.657527 1.325501,1.2299 0.04027,0.866444 -0.930113,1.825765 -1.835547,1.814875 -0.556962,-0.0067 -1.202247,-0.570786 -1.309998,-1.110525 -0.02163,7.94e-4 -0.04303,0.0019 -0.0646,0.0016 -0.598137,-0.0072 -1.298901,-0.656992 -1.325501,-1.229383 -0.03965,-0.852906 0.899639,-1.795995 1.792656,-1.814875 z m 100.000097,0 c 0.01418,-2.65e-4 0.02874,-1.7e-4 0.04289,0 0.556858,0.0067 1.202066,0.570367 1.309997,1.110009 0.02162,-7.94e-4 0.04303,-0.0019 0.0646,-0.0016 0.598138,0.0072 1.298892,0.657527 1.325501,1.2299 0.04027,0.866444 -0.930113,1.825765 -1.835546,1.814875 -0.556962,-0.0067 -1.202246,-0.570786 -1.309998,-1.110525 -0.02162,7.94e-4 -0.04303,0.0019 -0.06459,0.0016 -0.598138,-0.0072 -1.2989,-0.656992 -1.325502,-1.229383 -0.03965,-0.852906 0.899639,-1.795995 1.792656,-1.814875 z M 0.12557373,87.419987 c 1.07623897,0.01307 2.33697737,1.193083 2.38486737,2.232422 0.0725,1.573323 -1.67296167,3.315689 -3.30212404,3.295922 -1.07623596,-0.01304 -2.33700146,-1.193051 -2.38486726,-2.232422 -0.07248,-1.573323 1.6729686,-3.315678 3.30212393,-3.295922 z m 100.00009627,0 c 1.07624,0.01307 2.33698,1.193083 2.38487,2.232422 0.0725,1.573323 -1.67296,3.315689 -3.302125,3.295922 -1.076237,-0.01304 -2.337001,-1.193051 -2.384869,-2.232422 -0.07248,-1.573323 1.672971,-3.315678 3.302124,-3.295922 z m -87.00244,0.709517 c 0.715569,0.0093 1.553593,0.848868 1.585433,1.588016 0.0482,1.118902 -1.112543,2.357586 -2.195732,2.343526 -0.715569,-0.0093 -1.553613,-0.848328 -1.585433,-1.5875 -0.0482,-1.118902 1.112543,-2.358091 2.195732,-2.344042 z m 100.0001,0 c 0.71557,0.0093 1.55359,0.848868 1.58543,1.588016 0.0482,1.118902 -1.11254,2.357586 -2.19573,2.343526 -0.71557,-0.0093 -1.55361,-0.848328 -1.58543,-1.5875 -0.0482,-1.118902 1.11254,-2.358091 2.19573,-2.344042 z M -26.778728,88.31244 c 0.56526,0.0071 1.161639,0.09716 1.778704,0.280601 6.642411,1.974622 16.4858281,11.580689 18.6216019,18.173049 1.4108946,4.35495 -1.9273591,7.77588 -6.3153769,6.47144 -6.642409,-1.97463 -16.485829,-11.5812 -18.621602,-18.173564 -1.212498,-3.742542 1.082308,-6.794918 4.536673,-6.751526 z m 100.000099,0 c 0.565259,0.0071 1.161637,0.09716 1.778701,0.280601 6.642412,1.974622 16.485831,11.580689 18.621603,18.173049 1.410896,4.35495 -1.92736,7.77588 -6.315377,6.47144 -6.642409,-1.97463 -16.48583,-11.5812 -18.621602,-18.173564 -1.212496,-3.742542 1.082307,-6.794918 4.536675,-6.751526 z m -81.4983851,2.746084 c 2.1517827,-7.94e-4 4.5981122,1.287989 5.4280924,3.140895 0.7161293,1.598747 -0.2154409,4.221244 -1.7621665,4.961453 -2.3413596,1.120508 -6.1821658,-0.336819 -7.2662228,-2.756937 -0.71613,-1.59875 0.214924,-4.221247 1.761649,-4.961456 0.5487568,-0.262617 1.1799375,-0.383746 1.8386479,-0.383955 z m 100.0000971,0 c 2.151782,-7.94e-4 4.598112,1.287989 5.428094,3.140895 0.716129,1.598747 -0.215443,4.221244 -1.762168,4.961453 -2.341358,1.120508 -6.182166,-0.336819 -7.266223,-2.756937 -0.716129,-1.59875 0.214924,-4.221247 1.761649,-4.961456 0.548757,-0.262617 1.179939,-0.383746 1.838648,-0.383955 z m -126.15509,3.814238 c 0.968666,-2.64e-4 2.070147,0.560896 2.443779,1.367875 0.322379,0.696291 -0.09694,1.838732 -0.793234,2.161109 -1.054008,0.488005 -2.783107,-0.146431 -3.271118,-1.200444 -0.322379,-0.696291 0.09695,-1.838732 0.793234,-2.161109 0.247033,-0.114374 0.530807,-0.167341 0.827339,-0.167431 z m 100.000099,0 c 0.968663,-2.64e-4 2.070147,0.560896 2.443776,1.367875 0.322382,0.696291 -0.09694,1.838732 -0.793231,2.161109 -1.054008,0.488005 -2.78311,-0.146431 -3.271118,-1.200444 -0.322382,-0.696291 0.09695,-1.838732 0.793231,-2.161109 0.247034,-0.114374 0.53081,-0.167341 0.827342,-0.167431 z m -24.874969,7.593848 c 0.367329,-0.008 0.715529,0.23827 0.851628,0.70022 0.347001,1.17776 -0.13193,3.56749 -0.905889,4.52065 -0.511288,0.62966 -1.341734,0.46332 -1.570963,-0.31471 -0.346999,-1.17774 0.131929,-3.5675 0.905888,-4.52065 0.207701,-0.2558 0.468006,-0.3801 0.719336,-0.38551 z m 100.000097,0 c 0.36733,-0.008 0.71553,0.23827 0.85163,0.70022 0.347,1.17776 -0.13193,3.56749 -0.90589,4.52065 -0.51129,0.62966 -1.34173,0.46332 -1.57096,-0.31471 -0.347,-1.17774 0.13193,-3.5675 0.90589,-4.52065 0.20769,-0.2558 0.468,-0.3801 0.71933,-0.38551 z m -161.43614,6.99699 c 0.04867,-1.5e-4 0.0968,0.003 0.143661,0.0109 0.907887,0.14765 1.760471,1.33127 1.612821,2.23914 -0.0975,0.59975 -0.879749,1.1631 -1.479496,1.06557 -0.907889,-0.14766 -1.760472,-1.33126 -1.612822,-2.23914 0.08988,-0.5529 0.761577,-1.07469 1.335836,-1.07642 z m 100.000098,0 c 0.04867,-1.5e-4 0.0968,0.003 0.143661,0.0109 0.907886,0.14765 1.760472,1.33127 1.612821,2.23914 -0.0975,0.59975 -0.879748,1.1631 -1.479497,1.06557 -0.907889,-0.14766 -1.760472,-1.33126 -1.612821,-2.23914 0.08988,-0.5529 0.761577,-1.07469 1.335836,-1.07642 z m -100.8047,5.65134 c 0.04867,-1.4e-4 0.09629,0.003 0.143144,0.0108 0.907877,0.14766 1.760471,1.33126 1.612821,2.23914 -0.0975,0.59976 -0.879222,1.16311 -1.478979,1.06557 -0.907879,-0.14765 -1.760472,-1.33126 -1.612822,-2.23914 0.08988,-0.5529 0.761577,-1.07468 1.335836,-1.07642 z m 100.000097,0 c 0.04867,-1.4e-4 0.09629,0.003 0.143145,0.0108 0.907875,0.14766 1.760471,1.33126 1.612821,2.23914 -0.0975,0.59976 -0.879221,1.16311 -1.478979,1.06557 -0.90788,-0.14765 -1.760471,-1.33126 -1.612823,-2.23914 0.08988,-0.5529 0.761577,-1.07468 1.335836,-1.07642 z m -37.27886,3.10937 c 0.038,-1.1e-4 0.0756,0.003 0.112138,0.009 0.708499,0.11524 1.37354,1.03868 1.258319,1.74719 -0.0761,0.46804 -0.685893,0.9076 -1.153933,0.83148 -0.708509,-0.11524 -1.374068,-1.03921 -1.258837,-1.7477 0.0702,-0.43147 0.594164,-0.83839 1.042313,-0.83974 z m 100.000095,0 c 0.038,-1.1e-4 0.0756,0.003 0.11214,0.009 0.7085,0.11524 1.37354,1.03868 1.25832,1.74719 -0.0761,0.46804 -0.68589,0.9076 -1.15393,0.83148 -0.70851,-0.11524 -1.37407,-1.03921 -1.25884,-1.7477 0.0702,-0.43147 0.59416,-0.83839 1.04231,-0.83974 z m -191.173858,6.77323 v 0.003 h 0.0047 z" /></clipPath></defs><g
     inkscape:label="Layer 1"
     inkscape:groupmode="layer"
     id="layer1"><rect
       style="opacity:1;fill:#62b5d3;fill-opacity:1;stroke:none;stroke-width:1;stroke-linecap:round;stroke-dasharray:none;stroke-opacity:1;paint-order:stroke fill markers"
       id="rect9337"
       width="100.0001"
       height="100.0001"
       x="0"
       y="0" /><rect
       style="fill:#72c6e0;fill-opacity:1;stroke:none;stroke-width:1;stroke-linecap:round;stroke-dasharray:none;stroke-opacity:1;paint-order:stroke fill markers"
       id="rect8040"
       width="99.995445"
       height="99.998032"
       x="0.0046508787"
       y="0"
       clip-path="url(#clipPath9281)" /><path
       id="rect4792"
       style="fill:#abe5f3;fill-opacity:1;stroke:none;stroke-width:0.3;stroke-linecap:round;paint-order:stroke fill markers;opacity:0"
       d="M 0 0 L 0 1.8603516 C 1.4218176 2.2075288 2.6795037 2.8063855 3.4168457 3.6220011 C 3.7283551 3.9665805 3.9187896 4.3892996 4.0007894 4.8441488 C 4.2468988 6.208666 3.5142615 7.8647906 2.1218343 8.5860392 C 1.6557365 8.8154073 0.8926757 8.9877569 0 9.1069377 L 0 14.216187 C 3.1139899 14.308956 6.1275051 15.219345 8.1793457 17.019633 C 15.514285 23.455328 16.522414 38.896874 10.086723 46.231803 C 7.834093 48.799198 3.9114423 50.179614 0 50.29047 L 0 51.387561 C 6.0300462 52.306523 12.022344 54.514632 15.302942 57.52207 C 19.325414 61.209604 18.151942 67.610179 13.082922 69.630892 C 9.7284406 70.968128 4.8912556 71.172235 0 70.52076 L 0 73.074609 C 1.6887895 72.524328 3.5294043 72.263349 5.4322266 72.262773 C 13.570217 72.260306 22.821246 76.974977 25.960173 83.754578 C 28.212046 88.618249 26.154505 96.068814 22.035347 100.0001 L 23.286951 100.0001 C 25.070507 97.286851 28.244085 94.748804 31.346407 93.278027 C 30.276919 91.466112 29.853801 89.64045 30.544389 88.801815 C 30.780248 88.515392 31.23055 88.381212 31.795475 88.378068 C 33.038311 88.371151 34.835966 88.99696 36.12596 90.022929 C 37.081228 90.782679 37.930372 91.749605 38.59351 92.750928 C 40.491803 94.509336 40.317875 97.765684 39.191923 100.0001 L 41.742155 100.0001 C 41.327948 99.21495 40.990461 98.268345 40.792342 97.200269 C 40.309794 94.598783 40.937637 90.331322 41.979867 89.12686 C 42.349634 88.699526 42.774693 88.502428 43.218551 88.502091 C 44.668485 88.500993 46.316942 90.597329 46.876208 93.612374 C 47.220997 95.471171 46.99273 98.165129 46.457629 100.0001 L 50.038289 100.0001 C 45.459858 92.99148 44.415179 78.567164 48.269922 70.962077 C 49.944448 67.658374 53.265285 65.816045 56.431698 65.807353 C 58.461449 65.80178 60.427778 66.54952 61.856173 68.149329 C 67.391526 74.348953 68.934069 90.503457 64.774341 98.710254 C 64.541476 99.169677 64.274357 99.598188 63.982658 100.0001 L 67.023299 100.0001 C 66.948941 99.783042 66.880823 99.561548 66.822795 99.333472 C 66.160921 96.731986 67.022095 92.464009 68.451636 91.259546 C 68.958816 90.832212 69.541953 90.635114 70.150757 90.634778 C 72.139514 90.633679 74.400406 92.730533 75.167505 95.745577 C 75.476968 96.961919 75.443936 98.538601 75.185075 100.0001 L 79.374483 100.0001 C 78.44913 99.475422 77.621553 98.772802 77.003569 97.901001 C 75.265027 95.448411 74.404547 91.847407 74.404761 88.359981 C 70.980916 86.60258 67.975233 83.84924 67.112183 81.172306 C 66.869456 80.419429 66.868772 79.630108 67.059473 78.866504 C 67.631534 76.575677 69.928114 74.516829 72.594535 74.370654 C 72.645765 74.368904 72.698219 74.367956 72.752148 74.36807 C 76.149696 74.375273 84.815737 78.046964 87.448926 80.94493 C 91.022678 85.986489 90.886176 95.882186 87.190544 99.665234 C 87.071235 99.787365 86.939259 99.894239 86.806588 100.0001 L 87.954838 100.0001 C 87.972984 99.482136 88.048768 98.993901 88.206502 98.562459 C 88.690866 97.237788 90.311206 96.445745 91.948393 96.474731 C 92.692568 96.487907 93.440251 96.671052 94.086247 97.050407 C 95.177461 97.691215 96.165622 98.760186 96.949638 100.0001 L 100.0001 100.0001 L 100.0001 99.998031 C 96.368794 97.978991 93.35524 95.149426 91.814551 91.821785 C 89.106185 85.972129 92.628569 76.375712 98.478227 73.667338 C 98.968608 73.440294 99.477661 73.244299 100.0001 73.074093 L 100.0001 70.52076 C 99.448232 70.447263 98.895574 70.370393 98.344385 70.275297 C 95.782739 74.031996 91.647238 77.004514 87.519206 77.350834 C 86.358208 77.448235 85.127415 77.237199 83.927177 76.796346 C 80.326476 75.473792 76.997342 72.083254 76.630981 68.750326 C 76.286091 64.670325 81.658273 54.682096 86.108439 52.169425 C 88.266551 51.309116 91.038232 50.914835 94.043355 50.916272 C 95.966578 50.917192 97.985505 51.080526 100.0001 51.387561 L 100.0001 50.29047 C 96.529325 50.388787 93.067353 49.490452 90.78929 47.491675 C 83.45435 41.055981 82.446223 25.614974 88.881913 18.280021 C 91.273358 15.55443 95.547361 14.151165 99.691589 14.201717 C 99.794914 14.202977 99.896966 14.213117 100.0001 14.216187 L 100.0001 9.1069377 C 97.58235 9.4298067 94.147081 9.3276876 92.582463 8.6475342 C 89.916108 7.0817436 87.850307 2.9837095 87.954838 0 L 86.806071 0 C 84.934632 1.4927257 81.811647 1.381242 79.375 0 L 75.184558 0 C 74.889745 1.6640047 74.299744 3.1776356 73.538664 3.8188883 C 71.50014 5.536488 68.2335 3.5302963 67.023816 0 L 63.982658 0 C 60.832137 4.3408615 54.534904 5.2713473 51.18809 1.5229045 C 50.782248 1.0683587 50.400531 0.55451562 50.038289 0 L 46.458146 0 C 46.244322 0.73331658 45.986288 1.342272 45.688684 1.686202 C 44.538908 3.0149806 42.855136 2.1097061 41.742155 0 L 39.191923 0 C 39.187423 0.0089288246 39.183534 0.018492499 39.179004 0.027388509 C 36.4908 4.9298687 28.881382 9.5452569 24.7835 8.7586385 C 24.61432 8.7261485 24.452101 8.6793121 24.296191 8.6191121 C 21.957397 7.7160939 21.143054 3.8221925 22.80791 0.78599854 C 22.9523 0.52267501 23.115472 0.26086358 23.286951 0 L 22.035347 0 C 21.200291 0.79696933 20.282485 1.4524183 19.296497 1.9089274 C 13.770373 4.467504 6.0358197 3.3519697 0.0046508789 0 L 0 0 z M 96.949638 0 C 97.259347 0.48980262 97.540425 1.0034414 97.778528 1.5322062 C 98.533203 1.570769 99.28597 1.6859428 100.0001 1.8603516 L 100.0001 0 L 96.949638 0 z M 40.740149 1.3683919 C 41.384461 1.3651103 42.134465 2.0564317 42.201558 2.7466024 C 42.308145 3.842739 41.302102 5.2027308 40.298315 5.3190552 C 39.63524 5.39599 38.813233 4.6701258 38.742855 3.9460124 C 38.636268 2.8498758 39.641793 1.489884 40.645581 1.3735596 C 40.676662 1.3699532 40.708461 1.3685533 40.740149 1.3683919 z M 79.623047 1.4149007 C 82.4991 1.4034767 86.307754 2.3579869 87.594137 3.525883 C 88.582987 4.4236492 87.555695 5.7297516 85.650586 5.99705 C 82.766726 6.4016741 77.85449 5.3318899 76.357613 3.9728841 C 75.36876 3.0751176 76.396058 1.7684999 78.301164 1.5012004 C 78.706705 1.4442999 79.152419 1.4167701 79.623047 1.4149007 z M 48.082336 1.4231689 C 48.105226 1.4227389 48.127839 1.4232025 48.150549 1.4242025 C 49.276489 1.5058242 49.763183 3.0917169 50.957613 2.7104289 C 52.156239 2.7636006 53.468876 4.0641556 53.440666 5.1712606 C 53.265213 7.6784975 50.373166 8.9251132 49.661568 8.1535075 C 48.775999 8.0994895 47.806215 6.778131 47.827055 5.6534017 C 47.88048 3.9457727 47.154363 4.7386945 46.572868 2.7719238 C 46.589346 2.1254858 47.372605 1.4364229 48.082336 1.4231689 z M 20.280416 2.2505086 C 20.682391 2.2416575 21.188411 2.6235755 21.247799 2.9858643 C 21.339099 3.5429931 20.754761 4.2045876 20.141923 4.2374674 C 19.737073 4.2591674 19.215233 3.8711847 19.154903 3.5031453 C 19.063603 2.9460165 19.648456 2.284422 20.261296 2.2515422 C 20.267621 2.2512031 20.274035 2.2506491 20.280416 2.2505086 z M 5.023466 2.5290446 C 5.584552 2.5287353 6.2036805 2.8037502 6.4564535 3.2406291 C 6.6939529 3.6510683 6.50001 4.3777326 6.0895508 4.6152222 C 5.468252 4.9747314 4.368557 4.6810493 4.0090576 4.0597005 C 3.7715682 3.6492713 3.9655011 2.922597 4.3759603 2.6851074 C 4.5604083 2.5783781 4.7865629 2.5291752 5.023466 2.5290446 z M 44.400391 2.8034465 C 44.418818 2.8031084 44.437403 2.8031709 44.455684 2.8039632 C 45.341257 2.8423222 46.310526 3.7808834 46.289681 4.5795654 C 46.275991 5.1071645 45.604484 5.6705 45.019474 5.6451335 C 44.133903 5.6067745 43.164634 4.6682142 43.185478 3.8695312 C 43.19874 3.3584311 43.829131 2.8139254 44.400391 2.8034465 z M 7.9188965 3.1243571 C 8.3771022 3.1222199 8.9109129 3.5730578 8.9586263 4.0224935 C 9.0344261 4.7362921 8.3190691 5.6215767 7.6052205 5.6973267 C 7.1336715 5.7474265 6.5483612 5.2748634 6.4983114 4.8033244 C 6.4225114 4.0895258 7.1383853 3.2037244 7.8522339 3.1279744 C 7.8743373 3.125626 7.8963618 3.1244622 7.9188965 3.1243571 z M 15.930294 4.1780396 C 16.780524 4.174524 17.559537 4.2491131 18.216976 4.4142008 C 20.533282 4.9958398 21.121602 7.4186336 19.330086 8.9979004 C 16.618172 11.388536 9.645503 13.082307 6.1391602 12.201839 C 3.8228448 11.620201 3.2345334 9.1968897 5.0260498 7.6176229 C 7.2294885 5.6752317 12.245963 4.1932737 15.930294 4.1780396 z M 65.092151 4.5273722 C 71.595644 4.5715951 78.769798 5.8746143 82.65387 8.1163005 C 86.759215 10.485695 86.297196 15.017019 81.780021 16.688904 C 74.942096 19.219733 60.306304 18.035947 54.091789 14.449247 C 49.986445 12.079855 50.447945 7.5480099 54.96512 5.8761271 C 57.529343 4.9270654 61.190055 4.5008386 65.092151 4.5273722 z M 41.990719 5.7851766 C 42.277066 5.7850382 42.55822 5.7930051 42.833561 5.8094645 C 48.654097 6.1574039 51.995931 12.296551 49.155656 17.423226 C 47.06406 21.198541 42.510514 25.056637 37.371362 27.963151 C 37.78002 32.837134 36.355315 38.124505 33.166451 41.215055 C 32.269594 42.084259 31.106936 42.743026 29.814718 43.189612 C 25.938058 44.529364 20.892458 43.959092 18.342033 41.425895 C 15.305797 38.254591 13.026727 26.27261 15.022339 21.155298 C 19.187478 13.63725 33.113941 5.7894659 41.990719 5.7851766 z M 89.711837 7.6026367 C 89.779587 7.6028227 89.846909 7.6064654 89.913375 7.6140055 C 89.935865 7.6165555 89.958731 7.6203941 89.981071 7.6238241 C 90.85998 7.7585671 91.719363 8.9507081 91.736003 9.9802694 C 91.770457 9.9833914 91.804789 9.9864182 91.838839 9.9916382 C 92.782898 10.136369 93.705815 11.502224 93.584469 12.574943 C 93.400764 14.198795 91.591534 15.773679 90.162455 15.554606 C 89.283385 15.419837 88.423844 14.226831 88.407524 13.197127 C 88.373082 13.193877 88.339254 13.190958 88.305204 13.185758 C 87.361144 13.041027 86.438214 11.676235 86.559574 10.603487 C 86.731916 9.0799317 88.334246 7.5988555 89.711837 7.6026367 z M 18.810221 11.121285 C 19.236622 11.116536 19.612435 11.15132 19.918164 11.230839 C 21.210752 11.567035 20.907407 13.201066 19.344039 14.322123 C 16.977489 16.019126 12.129687 17.351305 10.173022 16.842383 C 8.8804324 16.506187 9.1842992 14.872156 10.747664 13.751099 C 12.744436 12.319256 16.507661 11.146928 18.810221 11.121285 z M 53.382788 15.222843 C 53.72261 15.222093 54.048146 15.284661 54.326917 15.421798 C 55.063545 15.784172 55.485773 17.022162 55.125834 17.763774 C 54.580972 18.886392 52.719684 19.529817 51.604602 18.98127 C 50.867973 18.618897 50.445746 17.381422 50.805684 16.639811 C 51.214332 15.797846 52.363324 15.225096 53.382788 15.222843 z M 86.256234 15.328263 C 86.887254 15.341129 87.591249 16.04574 87.657182 16.730245 C 87.659482 16.753025 87.660558 16.775221 87.661316 16.797941 C 87.666956 17.926822 86.12329 18.535081 86.595748 19.696472 C 86.63537 20.895622 85.440361 22.304503 84.334387 22.361943 C 81.82109 22.380784 80.35465 19.593794 81.068953 18.824691 C 81.054369 17.937596 82.296737 16.868742 83.419714 16.802592 C 85.126365 16.723885 84.279825 16.061053 86.195772 15.329297 C 86.215953 15.328249 86.235878 15.327848 86.256234 15.328263 z M 77.746676 18.437118 C 78.514909 18.439111 79.360971 18.820361 79.705212 19.423621 C 80.028637 19.990398 79.760209 20.991432 79.197233 21.317045 C 78.345029 21.809943 76.840482 21.400385 76.350895 20.542415 C 76.027471 19.975638 76.295899 18.97512 76.858875 18.649508 C 77.111871 18.503179 77.42231 18.436276 77.746676 18.437118 z M 73.526261 18.526001 C 74.30774 18.510718 75.184066 18.89584 75.535958 19.512504 C 75.859383 20.079283 75.590953 21.079799 75.027979 21.405412 C 74.175773 21.898308 72.671226 21.489267 72.181641 20.631299 C 71.858215 20.06452 72.126646 19.063488 72.68962 18.737874 C 72.929302 18.599247 73.220466 18.531981 73.526261 18.526001 z M 61.421057 18.800403 C 64.275963 18.794097 67.009836 19.320024 69.351839 20.472135 C 75.540408 23.516504 79.089044 33.916489 76.065125 40.146903 C 71.487629 49.578268 55.849934 54.986251 46.481917 50.377804 C 40.293349 47.333435 36.745229 36.933451 39.769149 30.703035 C 43.20227 23.629513 52.856341 18.819319 61.421057 18.800403 z M 79.454065 22.280811 C 81.235217 22.284919 83.196748 23.071695 83.994873 24.315312 C 84.744731 25.483727 84.121913 27.546151 82.81665 28.217399 C 80.840811 29.233509 77.352165 28.389814 76.217053 26.621114 C 75.467193 25.452698 76.090015 23.389758 77.395276 22.71851 C 77.981853 22.416851 78.702023 22.279076 79.454065 22.280811 z M 80.161515 30.027108 C 81.362815 30.022357 82.733441 30.299844 83.457438 30.776416 C 84.186241 31.256154 84.1002 32.158 83.294657 32.482772 C 82.075262 32.9744 79.470544 32.711334 78.36731 31.985128 C 77.638506 31.505392 77.724549 30.603546 78.53009 30.278772 C 78.949258 30.109775 79.532264 30.029596 80.161515 30.027108 z M 81.277726 33.950382 C 82.21323 33.942806 83.117694 34.179567 83.674996 34.673853 C 85.474714 36.270128 85.319851 40.028617 83.381991 41.78453 C 82.101819 42.944496 79.332962 43.062759 78.144067 42.008289 C 76.344341 40.41202 76.499212 36.653523 78.437073 34.897611 C 79.117166 34.281374 80.217488 33.958969 81.277726 33.950382 z M 36.417932 38.955245 C 36.622005 38.952261 36.841432 39.017933 37.053552 39.164535 C 38.135144 39.912051 39.349183 42.231068 39.350053 43.551864 C 39.350627 44.42439 38.549923 44.849248 37.835417 44.355432 C 36.753822 43.607916 35.540303 41.288383 35.539433 39.967586 C 35.539029 39.354093 35.934602 38.962312 36.417932 38.955245 z M 81.469446 43.004093 C 84.393366 43.014796 86.5558 44.53124 85.974597 46.640047 C 84.848443 50.726106 83.042612 57.02166 76.852157 58.773674 C 72.762701 59.931062 67.380064 58.076775 68.124007 55.377498 C 69.250163 51.291438 72.687413 45.121457 78.877873 43.369446 C 79.77244 43.116266 80.650748 43.001097 81.469446 43.004093 z M 14.456482 44.127539 C 14.723356 44.124176 14.980561 44.169381 15.203206 44.27275 C 16.551361 44.898615 17.388519 47.076292 16.786572 48.392395 C 16.770061 48.428507 16.751287 48.464014 16.731278 48.498848 C 16.907576 50.695143 14.797887 53.381292 12.692249 53.613265 C 11.28701 53.768267 9.543926 52.3059 9.3947754 50.847026 C 9.2100254 49.040808 10.602676 46.879598 12.279871 46.024064 C 12.300138 45.744153 12.361759 45.478008 12.470557 45.240133 C 12.768689 44.58806 13.655861 44.137628 14.456482 44.127539 z M 34.209281 44.172498 C 34.692749 44.173539 35.136693 44.202247 35.530648 44.262415 C 41.891927 46.04501 48.449284 54.396925 47.935575 60.062484 C 47.596219 63.805184 42.503322 66.681606 38.301021 65.504012 C 35.206421 64.636827 32.065653 62.214794 29.714982 59.303874 C 25.691815 60.160659 21.344177 59.902397 18.824174 58.253809 C 18.115434 57.790148 17.582475 57.131791 17.225822 56.365035 C 16.155862 54.064768 16.671817 50.78751 18.783866 48.855933 C 21.178779 46.754734 29.535765 44.162433 34.209281 44.172498 z M 68.15863 48.658529 C 68.449069 48.657635 68.739627 48.746959 68.919307 48.926729 C 69.463293 49.471081 69.466806 50.695718 68.926025 51.243384 C 68.568842 51.605174 67.765581 51.607577 67.406222 51.248035 C 66.862234 50.703686 66.858723 49.479047 67.399504 48.93138 C 67.578096 48.750484 67.868193 48.659423 68.15863 48.658529 z M 65.88125 49.896179 C 66.035173 49.896768 66.183505 49.920659 66.317916 49.972144 C 66.791476 50.153537 67.120273 50.891679 66.9401 51.368441 C 66.667355 52.090143 65.55786 52.591809 64.841003 52.31722 C 64.367444 52.135827 64.038642 51.397683 64.218819 50.920923 C 64.440422 50.334537 65.21425 49.893629 65.88125 49.896179 z M 47.688045 51.748779 C 48.287568 51.750335 48.947474 52.048502 49.216117 52.519275 C 49.468514 52.961582 49.25909 53.742083 48.819759 53.996187 C 48.154708 54.380838 46.980774 54.061637 46.598706 53.39209 C 46.346307 52.949782 46.555717 52.168763 46.995064 51.914661 C 47.192501 51.800467 47.434915 51.748122 47.688045 51.748779 z M 63.372876 52.306368 C 63.608947 52.304406 63.836986 52.31953 64.055005 52.353394 C 64.545539 52.429587 64.988839 52.653169 65.363452 52.977128 C 66.487299 53.948995 66.995928 55.828865 66.327734 57.375826 C 65.46813 59.258809 60.864713 63.224471 58.461031 63.901009 C 54.628066 64.4909 49.116805 61.61095 48.034794 58.452763 C 47.320041 56.366437 49.357776 53.590056 51.889856 53.20037 C 53.754494 52.913405 56.016334 53.44753 57.972172 54.435437 C 59.677452 53.179412 61.72038 52.320103 63.372876 52.306368 z M 68.249064 58.309102 C 68.792397 58.307123 69.334895 58.388981 69.834497 58.569552 C 71.777258 59.312612 75.67353 63.275309 76.225321 65.340715 C 76.585185 68.632934 73.137348 73.356766 69.702722 74.27712 C 67.433788 74.885109 64.62346 73.127637 64.385734 70.952775 C 64.210668 69.351195 64.936857 67.410922 66.124129 65.734489 C 64.733403 64.057478 63.924161 62.003534 64.334058 60.506901 C 64.449338 60.085978 64.71782 59.706259 65.088534 59.385522 C 65.853127 58.724005 67.053733 58.313457 68.249064 58.309102 z M 76.165894 59.90332 C 76.765415 59.904876 77.425839 60.202527 77.694482 60.673299 C 77.946879 61.115608 77.737455 61.896624 77.298124 62.150728 C 76.633073 62.535379 75.458622 62.216178 75.076554 61.546631 C 74.824157 61.104323 75.034082 60.323304 75.473429 60.069202 C 75.670866 59.955008 75.912762 59.902663 76.165894 59.90332 z M 29.22974 60.919796 C 29.24391 60.919496 29.258482 60.919626 29.272632 60.919796 C 29.829491 60.926499 30.474697 61.490163 30.582629 62.029806 C 30.604259 62.028929 30.625655 62.027996 30.647225 62.028255 C 31.245362 62.035455 31.946115 62.68578 31.972725 63.258154 C 32.012995 64.124599 31.042614 65.083921 30.137179 65.073031 C 29.580217 65.066326 28.934932 64.502245 28.827181 63.962504 C 28.805551 63.963282 28.784155 63.964314 28.762585 63.964054 C 28.164448 63.956854 27.463685 63.307062 27.437085 62.734672 C 27.397434 61.881764 28.336723 60.938676 29.22974 60.919796 z M 50.125623 62.419963 C 51.201859 62.433023 52.462601 63.613043 52.51049 64.652384 C 52.58296 66.22571 50.837528 67.968074 49.208366 67.948307 C 48.132129 67.935257 46.871365 66.755256 46.823499 65.715885 C 46.751019 64.14256 48.496463 62.400207 50.125623 62.419963 z M 63.123279 63.12948 C 63.838845 63.13878 64.676872 63.978346 64.708712 64.717497 C 64.756892 65.8364 63.596174 67.075081 62.51298 67.061023 C 61.797414 67.051723 60.959373 66.212693 60.927547 65.473523 C 60.879357 64.354619 62.040088 63.11543 63.123279 63.12948 z M 23.221322 63.312415 C 23.786582 63.319515 24.382959 63.409579 25.000024 63.593018 C 31.642442 65.567642 41.485851 75.173698 43.621627 81.766069 C 45.032523 86.121026 41.694272 89.541956 37.30625 88.237508 C 30.663834 86.262884 20.820422 76.656308 18.684648 70.06394 C 17.472149 66.321395 19.766952 63.269025 23.221322 63.312415 z M 41.723035 66.0585 C 43.87482 66.057825 46.321146 67.346488 47.151127 69.199394 C 47.867257 70.798144 46.935688 73.420639 45.388961 74.160848 C 43.047599 75.281355 39.206796 73.824031 38.122738 71.40391 C 37.406607 69.80516 38.33766 67.182663 39.884387 66.442456 C 40.433144 66.179837 41.064324 66.058707 41.723035 66.0585 z M 15.568042 69.872738 C 16.536708 69.872444 17.638189 70.433633 18.01182 71.240613 C 18.3342 71.936903 17.914877 73.079345 17.218587 73.401721 C 16.164579 73.889727 14.435479 73.255293 13.947469 72.201278 C 13.625089 71.504986 14.044414 70.362546 14.740702 70.040169 C 14.987736 69.925793 15.271511 69.872828 15.568042 69.872738 z M 90.693172 77.466589 C 91.060499 77.458685 91.408695 77.70485 91.5448 78.166805 C 91.891798 79.344559 91.41287 81.734303 90.638912 82.687459 C 90.127622 83.317117 89.297178 83.150779 89.067948 82.37275 C 88.72095 81.194996 89.199878 78.805248 89.973836 77.852096 C 90.181544 77.596296 90.441843 77.471998 90.693172 77.466589 z M 29.257129 84.463578 C 29.305795 84.463431 29.353934 84.46681 29.400789 84.47443 C 30.308677 84.622082 31.161261 85.805689 31.013611 86.71357 C 30.916111 87.313324 30.133863 87.876676 29.534115 87.779138 C 28.626225 87.631485 27.773643 86.44788 27.921293 85.539998 C 28.011176 84.9871 28.682869 84.465314 29.257129 84.463578 z M 28.452527 90.114913 C 28.501193 90.114766 28.548815 90.118145 28.595671 90.125765 C 29.503549 90.273417 30.356142 91.457023 30.208492 92.364905 C 30.110992 92.964657 29.329271 93.528011 28.729513 93.430473 C 27.821633 93.28282 26.969041 92.099215 27.116691 91.191333 C 27.206574 90.638436 27.878267 90.116649 28.452527 90.114913 z M 91.173763 93.224284 C 91.211742 93.224169 91.249335 93.227122 91.285901 93.233069 C 91.994399 93.348291 92.659442 94.271746 92.544222 94.980249 C 92.468122 95.448285 91.858327 95.887842 91.390287 95.811723 C 90.681779 95.696495 90.016219 94.772527 90.131449 94.064026 C 90.201604 93.632557 90.725609 93.225638 91.173763 93.224284 z M 0 99.997514 L 0 100.0001 L 0.0046508789 100.0001 L 0 99.997514 z " /></g></svg>
